<?xml version="1.0" encoding="UTF-8" standalone="no"?>
<svg
   xmlns:dc="http://purl.org/dc/elements/1.1/"
   xmlns:cc="http://creativecommons.org/ns#"
   xmlns:rdf="http://www.w3.org/1999/02/22-rdf-syntax-ns#"
   xmlns:svg="http://www.w3.org/2000/svg"
   xmlns="http://www.w3.org/2000/svg"
   xmlns:sodipodi="http://sodipodi.sourceforge.net/DTD/sodipodi-0.dtd"
   xmlns:inkscape="http://www.inkscape.org/namespaces/inkscape"
   width="20mm"
   height="20mm"
   viewBox="0 0 20 20"
   version="1.1"
   id="svg2601"
   inkscape:version="1.0.2 (e86c870879, 2021-01-15, custom)"
   sodipodi:docname="bishop_accent_inverse.svg">
  <defs
     id="defs2595" />
  <sodipodi:namedview
     id="base"
     pagecolor="#ffffff"
     bordercolor="#666666"
     borderopacity="1.0"
     inkscape:pageopacity="0.0"
     inkscape:pageshadow="2"
     inkscape:zoom="7.9195959"
     inkscape:cx="19.61438"
     inkscape:cy="37.788563"
     inkscape:document-units="mm"
     inkscape:current-layer="g16"
     inkscape:document-rotation="0"
     showgrid="false"
     inkscape:snap-page="true"
     inkscape:snap-object-midpoints="true"
     inkscape:snap-others="true"
     inkscape:object-nodes="false"
     inkscape:snap-nodes="false"
     inkscape:snap-global="false"
     inkscape:snap-grids="false"
     inkscape:snap-to-guides="false"
     inkscape:snap-bbox="true"
     inkscape:snap-bbox-midpoints="true"
     inkscape:window-width="1920"
     inkscape:window-height="1009"
     inkscape:window-x="-8"
     inkscape:window-y="-8"
     inkscape:window-maximized="1" />
  <metadata
     id="metadata2598">
    <rdf:RDF>
      <cc:Work
         rdf:about="">
        <dc:format>image/svg+xml</dc:format>
        <dc:type
           rdf:resource="http://purl.org/dc/dcmitype/StillImage" />
        <dc:title></dc:title>
      </cc:Work>
    </rdf:RDF>
  </metadata>
  <g
     inkscape:label="Calque 1"
     inkscape:groupmode="layer"
     id="layer1">
    <g
       style="fill:none;fill-opacity:1;fill-rule:evenodd;stroke:#000000;stroke-width:1.5;stroke-linecap:round;stroke-linejoin:round;stroke-miterlimit:4;stroke-dasharray:none;stroke-opacity:1"
       id="g16"
       transform="matrix(0.56939502,0,0,0.56939502,-2.7930427,-2.9893239)">
      <path
         style="fill:#000000;stroke-width:0.407592;stroke-linecap:butt;stroke-miterlimit:4;stroke-dasharray:none"
         d="m 37.748541,14.169096 c -3.027497,0.998964 -5.863005,2.573198 -8.458722,4.417477 -4.514224,3.2351 -8.19224,8.060352 -8.988851,13.662675 -0.11583,2.246479 -0.190872,4.590714 0.761067,6.688068 1.053157,2.652426 3.274591,4.937937 6.065354,5.674497 7.03775,-0.03677 14.078288,0.08669 21.11431,-0.06983 1.834091,-0.146208 3.342779,-1.456623 4.549639,-2.744053 1.770743,-2.07629 2.668227,-4.851573 2.56582,-7.571045 0.11877,-4.566276 -2.14651,-8.889587 -5.161988,-12.190884 -3.350787,-3.587099 -7.674263,-6.209028 -12.277447,-7.854577 -0.05521,-0.01311 -0.112598,-0.01982 -0.169182,-0.01233 z m 0.04858,7.720169 c 0.649371,-0.09773 1.189103,0.508491 1.44149,0.989437 0.04927,1.459329 -0.09814,2.962749 0.073,4.394755 1.48181,0.107418 2.998462,0.01375 4.493404,0.04538 0.540769,0.423759 1.018696,0.994491 0.856262,1.722143 -0.08134,0.531133 -0.624181,1.083259 -1.1088,1.160837 -1.417238,0.04928 -2.878575,-0.09817 -4.268487,0.073 -0.107417,1.481809 -0.01375,2.998461 -0.04538,4.493403 -0.439313,0.574118 -1.071849,1.077374 -1.834848,0.81557 -1.175382,-0.196222 -1.040413,-1.5392 -1.046159,-2.42328 -0.05187,-0.965806 0.09849,-1.975459 -0.07497,-2.913314 -1.54317,-0.19786 -3.178447,0.174093 -4.693905,-0.224917 -0.850766,-0.514199 -0.922114,-1.915253 -0.05059,-2.452206 0.571181,-0.532488 1.532983,-0.122316 2.271395,-0.251235 0.828046,-0.04899 1.700013,0.09793 2.50072,-0.073 0.107417,-1.481809 0.01375,-2.998461 0.04538,-4.493403 0.423816,-0.400705 0.77638,-0.969127 1.441491,-0.863168 z"
         id="path4763"
         transform="matrix(0.46467448,0,0,0.46467448,4.9052812,5.2500001)" />
      <path
         style="fill:#000000;stroke-width:0.407592;stroke-linecap:butt;stroke-miterlimit:4;stroke-dasharray:none"
         d="M 37.646688,3.168643 C 35.108231,3.0911254 33.20268,5.993292 34.09759,8.3234791 34.783375,10.448262 37.469706,11.689063 39.472164,10.564755 41.525366,9.6764145 42.349807,6.9132109 41.140543,5.038757 40.431387,3.8178603 39.054739,3.0874343 37.646688,3.168643 Z"
         id="path4765"
         transform="matrix(0.46467448,0,0,0.46467448,4.9052812,5.2500001)" />
      <path
         style="fill:#000000;stroke-width:0.407592;stroke-linecap:butt;stroke-miterlimit:4;stroke-dasharray:none"
         d="m 27.148352,47.686135 c -1.578014,1.602778 -3.469051,3.240748 -3.918534,5.543508 0.961294,0.243554 2.064225,0.02724 3.077809,0.10062 8.627729,0 17.255457,0 25.883186,0 0.470118,-0.328635 -0.20879,-1.019087 -0.294337,-1.473791 -0.813812,-1.688996 -2.253861,-3.001268 -3.609646,-4.229526 -6.998809,0 -13.997617,0 -20.996425,0 l -0.116556,0.04857 z"
         id="path4767"
         transform="matrix(0.46467448,0,0,0.46467448,4.9052812,5.2500001)" />
      <path
         style="fill:#000000;stroke-width:0.407592;stroke-linecap:butt;stroke-miterlimit:4;stroke-dasharray:none"
         d="m 22.581456,56.412511 c -0.05884,0.851967 -0.008,1.996766 0.906819,2.417609 3.437361,2.000894 7.495477,2.511012 11.393564,2.835628 5.239673,0.172372 10.666211,-0.01322 15.590143,-1.995421 1.04209,-0.481216 2.52837,-1.026581 2.53884,-2.403527 0.143245,-0.610465 -0.07758,-1.174892 -0.819023,-0.927288 -9.81857,0 -19.637142,0 -29.455712,0 l -0.114185,0.05391 z"
         id="path4769"
         transform="matrix(0.46467448,0,0,0.46467448,4.9052812,5.2500001)" />
      <path
         style="fill:#000000;stroke-width:0.407592;stroke-linecap:butt;stroke-miterlimit:4;stroke-dasharray:none"
         d="m 37.029893,65.702906 c -3.557561,1.839398 -7.622193,2.280943 -11.568229,2.540081 -4.982887,0.278772 -10.012649,0.0103 -14.969012,0.699794 -2.0184334,0.298287 -4.0977293,0.807413 -5.6444812,2.227513 -0.3639119,0.228407 -1.0079969,0.892119 -0.3382351,1.177768 1.2751298,0.357673 2.5864389,-0.285153 3.8255054,-0.550436 3.4774739,-1.008513 7.1367829,-0.604585 10.7075209,-0.697212 4.8227,-0.0471 9.674241,0.206908 14.473123,-0.379307 1.486575,-0.159512 2.868934,-0.78298 4.313102,-1.096955 2.033158,0.605661 4.077008,1.259575 6.219023,1.329029 6.839808,0.431351 13.712992,-0.254546 20.54114,0.321594 2.060875,0.100288 3.944394,1.190567 6.010852,1.169469 0.640396,0.05927 1.063615,-0.488657 0.270099,-0.770735 -2.043669,-1.559816 -4.437245,-2.775124 -7.046762,-2.914041 -6.545308,-0.557606 -13.191711,-0.02343 -19.658457,-1.208891 -2.168367,-0.450147 -4.365511,-1.059279 -6.288052,-2.212668 -0.31901,-0.04022 -0.56554,0.254324 -0.847137,0.364997 z"
         id="path4771"
         transform="matrix(0.46467448,0,0,0.46467448,4.9052812,5.2500001)" />
    </g>
  </g>
</svg>
