<?xml version="1.0" encoding="UTF-8" standalone="no"?>
<svg
   xmlns:dc="http://purl.org/dc/elements/1.1/"
   xmlns:cc="http://creativecommons.org/ns#"
   xmlns:rdf="http://www.w3.org/1999/02/22-rdf-syntax-ns#"
   xmlns:svg="http://www.w3.org/2000/svg"
   xmlns="http://www.w3.org/2000/svg"
   xmlns:sodipodi="http://sodipodi.sourceforge.net/DTD/sodipodi-0.dtd"
   xmlns:inkscape="http://www.inkscape.org/namespaces/inkscape"
   width="20mm"
   height="20mm"
   viewBox="0 0 20 20"
   version="1.1"
   id="svg2601"
   inkscape:version="1.0.2 (e86c870879, 2021-01-15, custom)"
   sodipodi:docname="bishop_base.svg">
  <defs
     id="defs2595" />
  <sodipodi:namedview
     id="base"
     pagecolor="#ffffff"
     bordercolor="#666666"
     borderopacity="1.0"
     inkscape:pageopacity="0.0"
     inkscape:pageshadow="2"
     inkscape:zoom="11.2"
     inkscape:cx="29.797936"
     inkscape:cy="45.4641"
     inkscape:document-units="mm"
     inkscape:current-layer="g16"
     inkscape:document-rotation="0"
     showgrid="false"
     inkscape:snap-page="true"
     inkscape:snap-object-midpoints="true"
     inkscape:snap-others="true"
     inkscape:object-nodes="false"
     inkscape:snap-nodes="false"
     inkscape:snap-global="false"
     inkscape:snap-grids="false"
     inkscape:snap-to-guides="false"
     inkscape:snap-bbox="true"
     inkscape:snap-bbox-midpoints="true"
     inkscape:window-width="1920"
     inkscape:window-height="1009"
     inkscape:window-x="-8"
     inkscape:window-y="-8"
     inkscape:window-maximized="1" />
  <metadata
     id="metadata2598">
    <rdf:RDF>
      <cc:Work
         rdf:about="">
        <dc:format>image/svg+xml</dc:format>
        <dc:type
           rdf:resource="http://purl.org/dc/dcmitype/StillImage" />
        <dc:title />
      </cc:Work>
    </rdf:RDF>
  </metadata>
  <g
     inkscape:label="Calque 1"
     inkscape:groupmode="layer"
     id="layer1">
    <g
       style="fill:none;fill-opacity:1;fill-rule:evenodd;stroke:#000000;stroke-width:1.5;stroke-linecap:round;stroke-linejoin:round;stroke-miterlimit:4;stroke-dasharray:none;stroke-opacity:1"
       id="g16"
       transform="matrix(0.56939502,0,0,0.56939502,-2.7930427,-2.9893239)">
      <g
         style="fill:none;fill-opacity:1;fill-rule:evenodd;stroke:#000000;stroke-width:1.5;stroke-linecap:round;stroke-linejoin:round;stroke-miterlimit:4;stroke-dasharray:none;stroke-opacity:1"
         transform="matrix(1.0088666,0,0,1.0088666,-0.23322253,0.45788263)"
         id="g48">
        <g
           style="fill:#ffffff;stroke:#000000;stroke-linecap:butt"
           id="g44">
          <g
             id="path38"
             style="opacity:1">
            <path
               style="color:#000000;font-style:normal;font-variant:normal;font-weight:normal;font-stretch:normal;font-size:medium;line-height:normal;font-family:sans-serif;font-variant-ligatures:normal;font-variant-position:normal;font-variant-caps:normal;font-variant-numeric:normal;font-variant-alternates:normal;font-variant-east-asian:normal;font-feature-settings:normal;font-variation-settings:normal;text-indent:0;text-align:start;text-decoration:none;text-decoration-line:none;text-decoration-style:solid;text-decoration-color:#000000;letter-spacing:normal;word-spacing:normal;text-transform:none;writing-mode:lr-tb;direction:ltr;text-orientation:mixed;dominant-baseline:auto;baseline-shift:baseline;text-anchor:start;white-space:normal;shape-padding:0;shape-margin:0;inline-size:0;clip-rule:nonzero;display:inline;overflow:visible;visibility:visible;isolation:auto;mix-blend-mode:normal;color-interpolation:sRGB;color-interpolation-filters:linearRGB;solid-color:#000000;solid-opacity:1;vector-effect:none;fill:#ffffff;fill-opacity:1;fill-rule:nonzero;stroke:none;stroke-width:1.5;stroke-linecap:butt;stroke-linejoin:miter;stroke-miterlimit:4;stroke-dasharray:none;stroke-dashoffset:0;stroke-opacity:1;color-rendering:auto;image-rendering:auto;shape-rendering:auto;text-rendering:auto;enable-background:accumulate;stop-color:#000000;stop-opacity:1"
               d="m 9,36 c 3.39,-0.97 10.11,0.43 13.5,-2 3.39,2.43 10.11,1.03 13.5,2 0,0 1.65,0.54 3,2 -0.68,0.97 -1.65,0.99 -3,0.5 -3.39,-0.97 -10.11,0.46 -13.5,-1 C 19.11,38.96 12.39,37.53 9,38.5 7.646,38.99 6.677,38.97 6,38 7.354,36.06 9,36 9,36 Z"
               id="path6921" />
            <path
               style="color:#000000;font-style:normal;font-variant:normal;font-weight:normal;font-stretch:normal;font-size:medium;line-height:normal;font-family:sans-serif;font-variant-ligatures:normal;font-variant-position:normal;font-variant-caps:normal;font-variant-numeric:normal;font-variant-alternates:normal;font-variant-east-asian:normal;font-feature-settings:normal;font-variation-settings:normal;text-indent:0;text-align:start;text-decoration:none;text-decoration-line:none;text-decoration-style:solid;text-decoration-color:#000000;letter-spacing:normal;word-spacing:normal;text-transform:none;writing-mode:lr-tb;direction:ltr;text-orientation:mixed;dominant-baseline:auto;baseline-shift:baseline;text-anchor:start;white-space:normal;shape-padding:0;shape-margin:0;inline-size:0;clip-rule:nonzero;display:inline;overflow:visible;visibility:visible;isolation:auto;mix-blend-mode:normal;color-interpolation:sRGB;color-interpolation-filters:linearRGB;solid-color:#000000;solid-opacity:1;vector-effect:none;fill:#000000;fill-opacity:1;fill-rule:nonzero;stroke:none;stroke-linecap:butt;stroke-linejoin:miter;stroke-miterlimit:4;stroke-dasharray:none;stroke-dashoffset:0;stroke-opacity:1;color-rendering:auto;image-rendering:auto;shape-rendering:auto;text-rendering:auto;enable-background:accumulate;stop-color:#000000;stop-opacity:1"
               d="M 22.529297,33.25 A 0.750075,0.750075 0 0 0 22.0625,33.390625 c -1.448845,1.038553 -3.84254,1.33232 -6.333984,1.40625 -2.439778,0.0724 -4.902897,-0.04357 -6.8007816,0.464844 -0.038864,0.0023 -0.5581401,0.02871 -1.2246094,0.324219 -0.6908937,0.306336 -1.561803,0.900387 -2.3183594,1.984374 a 0.750075,0.750075 0 0 0 0,0.859376 c 0.4332304,0.620728 1.0773654,1.021411 1.7636719,1.111328 0.6863065,0.08992 1.3735186,-0.07034 2.1074219,-0.335938 l -0.048828,0.01563 c 1.4752706,-0.422128 3.9877346,-0.341117 6.5273436,-0.287109 2.425667,0.05158 4.857251,0.04397 6.765625,-0.681641 1.908374,0.725614 4.339958,0.733225 6.765625,0.681641 2.539609,-0.05401 5.052073,-0.135019 6.527344,0.287109 l -0.04883,-0.01563 c 0.732228,0.265772 1.419198,0.425827 2.105468,0.335938 0.686271,-0.08989 1.328843,-0.491057 1.763672,-1.111328 a 0.750075,0.750075 0 0 0 -0.0625,-0.939454 C 38.056554,35.874257 36.23242,35.287109 36.23242,35.287109 a 0.750075,0.750075 0 0 0 -0.02539,-0.0078 C 34.294268,34.731987 31.762929,34.870805 29.271484,34.796875 26.78004,34.722945 24.386345,34.429178 22.9375,33.390625 A 0.750075,0.750075 0 0 0 22.529297,33.25 Z M 22.5,34.783203 c 1.89893,1.161826 4.332255,1.442566 6.728516,1.513672 2.559757,0.07596 5.07654,0.0032 6.554687,0.423828 0.02099,0.0071 0.985364,0.454341 1.982422,1.259766 -0.0415,0.0093 -0.06467,0.06811 -0.111328,0.07422 -0.306229,0.04011 -0.780666,-0.03554 -1.398438,-0.259766 a 0.750075,0.750075 0 0 0 -0.04883,-0.01563 C 34.2923,37.231421 31.749764,37.380097 29.234373,37.43359 c -2.515391,0.05349 -4.989558,5.5e-4 -6.4375,-0.623047 a 0.750075,0.750075 0 0 0 -0.59375,0 c -1.447942,0.623597 -3.922109,0.676539 -6.4375,0.623047 -2.515391,-0.05349 -5.057927,-0.202169 -6.9726562,0.345703 a 0.750075,0.750075 0 0 0 -0.048828,0.01563 C 8.1240439,38.019329 7.6496935,38.094771 7.34375,38.054688 7.2732787,38.045455 7.2351105,37.960754 7.1757812,37.943359 7.5757869,37.550735 7.9974016,37.098697 8.3125,36.958984 8.7831063,36.750321 9.0273438,36.75 9.0273438,36.75 A 0.750075,0.750075 0 0 0 9.2070312,36.7207 C 10.684268,36.298013 13.207929,36.372945 15.771484,36.296875 18.167745,36.225769 20.60107,35.945029 22.5,34.783203 Z"
               id="path6923" />
          </g>
          <g
             id="path40"
             style="opacity:1">
            <path
               style="color:#000000;font-style:normal;font-variant:normal;font-weight:normal;font-stretch:normal;font-size:medium;line-height:normal;font-family:sans-serif;font-variant-ligatures:normal;font-variant-position:normal;font-variant-caps:normal;font-variant-numeric:normal;font-variant-alternates:normal;font-variant-east-asian:normal;font-feature-settings:normal;font-variation-settings:normal;text-indent:0;text-align:start;text-decoration:none;text-decoration-line:none;text-decoration-style:solid;text-decoration-color:#000000;letter-spacing:normal;word-spacing:normal;text-transform:none;writing-mode:lr-tb;direction:ltr;text-orientation:mixed;dominant-baseline:auto;baseline-shift:baseline;text-anchor:start;white-space:normal;shape-padding:0;shape-margin:0;inline-size:0;clip-rule:nonzero;display:inline;overflow:visible;visibility:visible;isolation:auto;mix-blend-mode:normal;color-interpolation:sRGB;color-interpolation-filters:linearRGB;solid-color:#000000;solid-opacity:1;vector-effect:none;fill:#ffffff;fill-opacity:1;fill-rule:nonzero;stroke:none;stroke-width:1.5;stroke-linecap:butt;stroke-linejoin:miter;stroke-miterlimit:4;stroke-dasharray:none;stroke-dashoffset:0;stroke-opacity:1;color-rendering:auto;image-rendering:auto;shape-rendering:auto;text-rendering:auto;enable-background:accumulate;stop-color:#000000;stop-opacity:1"
               d="m 15,32 c 2.5,2.5 12.5,2.5 15,0 0.5,-1.5 0,-2 0,-2 0,-2.5 -2.5,-4 -2.5,-4 5.5,-1.5 6,-11.5 -5,-15.5 -11,4 -10.5,14 -5,15.5 0,0 -2.5,1.5 -2.5,4 0,0 -0.5,0.5 0,2 z"
               id="path6927" />
            <path
               style="color:#000000;font-style:normal;font-variant:normal;font-weight:normal;font-stretch:normal;font-size:medium;line-height:normal;font-family:sans-serif;font-variant-ligatures:normal;font-variant-position:normal;font-variant-caps:normal;font-variant-numeric:normal;font-variant-alternates:normal;font-variant-east-asian:normal;font-feature-settings:normal;font-variation-settings:normal;text-indent:0;text-align:start;text-decoration:none;text-decoration-line:none;text-decoration-style:solid;text-decoration-color:#000000;letter-spacing:normal;word-spacing:normal;text-transform:none;writing-mode:lr-tb;direction:ltr;text-orientation:mixed;dominant-baseline:auto;baseline-shift:baseline;text-anchor:start;white-space:normal;shape-padding:0;shape-margin:0;inline-size:0;clip-rule:nonzero;display:inline;overflow:visible;visibility:visible;isolation:auto;mix-blend-mode:normal;color-interpolation:sRGB;color-interpolation-filters:linearRGB;solid-color:#000000;solid-opacity:1;vector-effect:none;fill:#000000;fill-opacity:1;fill-rule:nonzero;stroke:none;stroke-linecap:butt;stroke-linejoin:miter;stroke-miterlimit:4;stroke-dasharray:none;stroke-dashoffset:0;stroke-opacity:1;color-rendering:auto;image-rendering:auto;shape-rendering:auto;text-rendering:auto;enable-background:accumulate;stop-color:#000000;stop-opacity:1"
               d="m 22.470703,9.75 a 0.750075,0.750075 0 0 0 -0.226562,0.044922 c -5.692075,2.069845 -8.554354,5.773496 -9.169922,9.261719 -0.531978,3.014542 0.731481,5.802315 3.099609,7.085937 -0.795815,0.660201 -1.705393,1.706805 -1.849609,3.525391 -0.02282,0.03261 -0.03105,0.0348 -0.05078,0.07031 -0.07572,0.136287 -0.15093,0.321055 -0.197266,0.552735 -0.09267,0.463358 -0.06873,1.100444 0.21289,1.945312 a 0.750075,0.750075 0 0 0 0.179688,0.294922 c 0.801777,0.801777 2.00472,1.275697 3.40625,1.605469 1.40153,0.329772 3.0125,0.488281 4.625,0.488281 1.6125,0 3.22347,-0.158509 4.625,-0.488281 1.40153,-0.329772 2.604473,-0.803692 3.40625,-1.605469 a 0.750075,0.750075 0 0 0 0.179688,-0.294922 c 0.281622,-0.844868 0.305562,-1.481954 0.21289,-1.945312 -0.04634,-0.23168 -0.121551,-0.416448 -0.197266,-0.552735 -0.01973,-0.03551 -0.02796,-0.0377 -0.05078,-0.07031 -0.144216,-1.818586 -1.053794,-2.86519 -1.849609,-3.525391 2.368128,-1.283622 3.631587,-4.071395 3.099609,-7.085937 -0.615568,-3.488223 -3.477847,-7.191874 -9.169922,-9.261719 A 0.750075,0.750075 0 0 0 22.470703,9.75 Z M 22.5,11.330078 c 5.103333,1.943495 7.449245,5.155095 7.949219,7.988281 0.509431,2.886778 -0.799088,5.318786 -3.146485,5.958985 a 0.750075,0.750075 0 0 0 -0.189453,1.365234 C 27.113281,26.642578 29.25,28 29.25,30 a 0.750075,0.750075 0 0 0 0.166016,0.470703 c 0.0038,0.0069 0.01979,0.03646 0.03516,0.113281 0.02607,0.130333 -0.02302,0.511821 -0.13086,0.951172 -0.478737,0.424506 -1.353598,0.861693 -2.539062,1.140625 C 25.52653,32.971009 24.0125,33.125 22.5,33.125 c -1.5125,0 -3.02653,-0.153991 -4.28125,-0.449219 -1.185464,-0.278932 -2.060325,-0.716119 -2.539062,-1.140625 -0.107838,-0.439351 -0.156926,-0.820839 -0.13086,-0.951172 0.01536,-0.07682 0.03137,-0.10636 0.03516,-0.113281 A 0.750075,0.750075 0 0 0 15.75,30 c 0,-2 2.136719,-3.357422 2.136719,-3.357422 A 0.750075,0.750075 0 0 0 17.697266,25.277344 C 15.349869,24.637145 14.04135,22.205137 14.550781,19.318359 15.050755,16.485173 17.396667,13.273573 22.5,11.330078 Z"
               id="path6929" />
          </g>
          <g
             id="path42"
             style="opacity:1">
            <path
               style="color:#000000;font-style:normal;font-variant:normal;font-weight:normal;font-stretch:normal;font-size:medium;line-height:normal;font-family:sans-serif;font-variant-ligatures:normal;font-variant-position:normal;font-variant-caps:normal;font-variant-numeric:normal;font-variant-alternates:normal;font-variant-east-asian:normal;font-feature-settings:normal;font-variation-settings:normal;text-indent:0;text-align:start;text-decoration:none;text-decoration-line:none;text-decoration-style:solid;text-decoration-color:#000000;letter-spacing:normal;word-spacing:normal;text-transform:none;writing-mode:lr-tb;direction:ltr;text-orientation:mixed;dominant-baseline:auto;baseline-shift:baseline;text-anchor:start;white-space:normal;shape-padding:0;shape-margin:0;inline-size:0;clip-rule:nonzero;display:inline;overflow:visible;visibility:visible;isolation:auto;mix-blend-mode:normal;color-interpolation:sRGB;color-interpolation-filters:linearRGB;solid-color:#000000;solid-opacity:1;vector-effect:none;fill:#ffffff;fill-opacity:1;fill-rule:nonzero;stroke:none;stroke-width:1.5;stroke-linecap:butt;stroke-linejoin:miter;stroke-miterlimit:4;stroke-dasharray:none;stroke-dashoffset:0;stroke-opacity:1;color-rendering:auto;image-rendering:auto;shape-rendering:auto;text-rendering:auto;enable-background:accumulate;stop-color:#000000;stop-opacity:1"
               d="m 25,8 c 0,3.333332 -5,3.333332 -5,0 0,-3.3333319 5,-3.3333319 5,0 z"
               id="path6933" />
            <path
               style="color:#000000;font-style:normal;font-variant:normal;font-weight:normal;font-stretch:normal;font-size:medium;line-height:normal;font-family:sans-serif;font-variant-ligatures:normal;font-variant-position:normal;font-variant-caps:normal;font-variant-numeric:normal;font-variant-alternates:normal;font-variant-east-asian:normal;font-feature-settings:normal;font-variation-settings:normal;text-indent:0;text-align:start;text-decoration:none;text-decoration-line:none;text-decoration-style:solid;text-decoration-color:#000000;letter-spacing:normal;word-spacing:normal;text-transform:none;writing-mode:lr-tb;direction:ltr;text-orientation:mixed;dominant-baseline:auto;baseline-shift:baseline;text-anchor:start;white-space:normal;shape-padding:0;shape-margin:0;inline-size:0;clip-rule:nonzero;display:inline;overflow:visible;visibility:visible;isolation:auto;mix-blend-mode:normal;color-interpolation:sRGB;color-interpolation-filters:linearRGB;solid-color:#000000;solid-opacity:1;vector-effect:none;fill:#000000;fill-opacity:1;fill-rule:nonzero;stroke:none;stroke-linecap:butt;stroke-linejoin:miter;stroke-miterlimit:4;stroke-dasharray:none;stroke-dashoffset:0;stroke-opacity:1;color-rendering:auto;image-rendering:auto;shape-rendering:auto;text-rendering:auto;enable-background:accumulate;stop-color:#000000;stop-opacity:1"
               d="m 22.5,4.75 c -0.791667,0 -1.59341,0.2603321 -2.216797,0.8144531 C 19.659817,6.1185742 19.25,6.9791669 19.25,8 c 0,1.0208331 0.409817,1.8814258 1.033203,2.435547 C 20.90659,10.989668 21.708333,11.25 22.5,11.25 c 0.791667,0 1.59341,-0.260332 2.216797,-0.814453 C 25.340183,9.8814258 25.75,9.0208331 25.75,8 25.75,6.9791669 25.340183,6.1185742 24.716797,5.5644531 24.09341,5.0103321 23.291667,4.75 22.5,4.75 Z m 0,1.5 c 0.458333,0 0.90659,0.1563349 1.220703,0.4355469 C 24.034817,6.9647588 24.25,7.3541671 24.25,8 24.25,8.6458329 24.034817,9.0352412 23.720703,9.3144531 23.40659,9.5936651 22.958333,9.75 22.5,9.75 22.041667,9.75 21.59341,9.5936651 21.279297,9.3144531 20.965183,9.0352412 20.75,8.6458329 20.75,8 20.75,7.3541671 20.965183,6.9647588 21.279297,6.6855469 21.59341,6.4063349 22.041667,6.25 22.5,6.25 Z"
               id="path6935" />
          </g>
        </g>
        <path
           style="color:#000000;font-style:normal;font-variant:normal;font-weight:normal;font-stretch:normal;font-size:medium;line-height:normal;font-family:sans-serif;font-variant-ligatures:normal;font-variant-position:normal;font-variant-caps:normal;font-variant-numeric:normal;font-variant-alternates:normal;font-variant-east-asian:normal;font-feature-settings:normal;font-variation-settings:normal;text-indent:0;text-align:start;text-decoration:none;text-decoration-line:none;text-decoration-style:solid;text-decoration-color:#000000;letter-spacing:normal;word-spacing:normal;text-transform:none;writing-mode:lr-tb;direction:ltr;text-orientation:mixed;dominant-baseline:auto;baseline-shift:baseline;text-anchor:start;white-space:normal;shape-padding:0;shape-margin:0;inline-size:0;clip-rule:nonzero;display:inline;overflow:visible;visibility:visible;opacity:1;isolation:auto;mix-blend-mode:normal;color-interpolation:sRGB;color-interpolation-filters:linearRGB;solid-color:#000000;solid-opacity:1;vector-effect:none;fill:#000000;fill-opacity:1;fill-rule:nonzero;stroke:none;stroke-linecap:butt;stroke-linejoin:miter;stroke-miterlimit:4;stroke-dasharray:none;stroke-dashoffset:0;stroke-opacity:1;color-rendering:auto;image-rendering:auto;shape-rendering:auto;text-rendering:auto;enable-background:accumulate;stop-color:#000000;stop-opacity:1"
           d="m 22.5,14.75 c -0.414214,0 -0.75,0.335786 -0.75,0.75 v 1.75 H 20 c -0.414214,0 -0.75,0.335786 -0.75,0.75 0,0.414214 0.335786,0.75 0.75,0.75 h 1.75 v 1.75 c 0,0.414214 0.335786,0.75 0.75,0.75 0.414214,0 0.75,-0.335786 0.75,-0.75 V 18.75 H 25 c 0.414214,0 0.75,-0.335786 0.75,-0.75 0,-0.414214 -0.335786,-0.75 -0.75,-0.75 H 23.25 V 15.5 c 0,-0.414214 -0.335786,-0.75 -0.75,-0.75 z m -5,10.5 c -0.414214,0 -0.75,0.335786 -0.75,0.75 0,0.414214 0.335786,0.75 0.75,0.75 h 10 c 0.414214,0 0.75,-0.335786 0.75,-0.75 0,-0.414214 -0.335786,-0.75 -0.75,-0.75 z m -2.5,4 c -0.414214,0 -0.174262,0.459159 -0.174262,0.873372 C 14.825738,30.537586 14.585786,30.75 15,30.75 h 15 c 0.414214,0 0.133138,-0.294662 0.133138,-0.708876 C 30.133138,29.626911 30.414214,29.25 30,29.25 Z"
           id="path46"
           sodipodi:nodetypes="sscssscssscssscssssssssssssssss" />
      </g>
    </g>
  </g>
</svg>
