<?xml version="1.0" encoding="UTF-8" standalone="no"?>
<svg
   xmlns:dc="http://purl.org/dc/elements/1.1/"
   xmlns:cc="http://creativecommons.org/ns#"
   xmlns:rdf="http://www.w3.org/1999/02/22-rdf-syntax-ns#"
   xmlns:svg="http://www.w3.org/2000/svg"
   xmlns="http://www.w3.org/2000/svg"
   xmlns:sodipodi="http://sodipodi.sourceforge.net/DTD/sodipodi-0.dtd"
   xmlns:inkscape="http://www.inkscape.org/namespaces/inkscape"
   width="20mm"
   height="20mm"
   viewBox="0 0 20 20"
   version="1.1"
   id="svg2601"
   inkscape:version="1.0.2 (e86c870879, 2021-01-15, custom)"
   sodipodi:docname="king_accent_inverse.svg"
   inkscape:export-filename="F:\OneDrive\Documents\OpenSCAD\king.png"
   inkscape:export-xdpi="127"
   inkscape:export-ydpi="127">
  <defs
     id="defs2595" />
  <sodipodi:namedview
     id="base"
     pagecolor="#ffffff"
     bordercolor="#666666"
     borderopacity="1.0"
     inkscape:pageopacity="1"
     inkscape:pageshadow="2"
     inkscape:zoom="11.2"
     inkscape:cx="45.529895"
     inkscape:cy="38.356932"
     inkscape:document-units="mm"
     inkscape:current-layer="layer1"
     inkscape:document-rotation="0"
     showgrid="false"
     inkscape:snap-page="true"
     inkscape:snap-object-midpoints="true"
     inkscape:snap-others="true"
     inkscape:object-nodes="false"
     inkscape:snap-nodes="false"
     inkscape:snap-global="false"
     inkscape:snap-grids="false"
     inkscape:snap-to-guides="false"
     inkscape:snap-bbox="true"
     inkscape:snap-bbox-midpoints="true"
     inkscape:window-width="1920"
     inkscape:window-height="1009"
     inkscape:window-x="-8"
     inkscape:window-y="-8"
     inkscape:window-maximized="1" />
  <metadata
     id="metadata2598">
    <rdf:RDF>
      <cc:Work
         rdf:about="">
        <dc:format>image/svg+xml</dc:format>
        <dc:type
           rdf:resource="http://purl.org/dc/dcmitype/StillImage" />
        <dc:title></dc:title>
      </cc:Work>
    </rdf:RDF>
  </metadata>
  <g
     inkscape:label="Calque 1"
     inkscape:groupmode="layer"
     id="layer1">
    <path
       style="opacity:1;fill:#000000;fill-opacity:1;stroke-width:0.0892857"
       d="m 15.153918,24.451903 c -3.269463,0.0061 -6.5563657,1.414663 -8.6188613,3.989083 -1.3137836,1.648808 -2.2638129,3.595852 -2.8133719,5.628314 -0.5353009,2.444553 -0.2369159,5.081843 0.9737723,7.287597 1.4170976,2.81139 3.7578006,5.028557 6.1844309,6.9744 1.360515,1.02823 2.821692,1.963511 4.329824,2.731045 1.372431,-0.498431 2.735119,-1.124857 4.152548,-1.541205 5.265915,-1.684583 10.793189,-2.449894 16.30976,-2.526684 0.748364,0.230984 0.815159,-0.440619 0.727538,-1.003592 -0.01573,-2.1531 0.03118,-4.313841 -0.02319,-6.462228 C 33.400104,33.495977 28.356985,28.384852 22.07222,25.85277 19.884398,24.946173 17.52918,24.413679 15.153918,24.451903 Z"
       id="path4810"
       transform="scale(0.26458333)" />
    <path
       style="opacity:1;fill:#000000;fill-opacity:1;stroke-width:0.0892857"
       d="m 37.809296,15.987547 c -1.983306,0.06866 -3.457254,1.690189 -4.409702,3.278634 -0.747802,1.179068 -1.242355,2.543663 -1.156704,3.956822 0.01743,2.500442 0.689919,4.957699 1.591269,7.272068 0.736897,1.132368 1.719539,2.079155 2.461001,3.213401 0.47427,0.593654 0.79703,1.332256 1.332426,1.857409 0.466449,-0.248448 0.582075,-0.922951 0.905116,-1.345652 1.055467,-1.926084 2.450372,-3.631773 3.860858,-5.302122 0.511514,-1.090914 0.67892,-2.316167 0.921798,-3.489418 0.208731,-1.677769 0.413333,-3.509226 -0.404917,-5.065793 -0.866301,-1.856013 -2.257867,-3.750624 -4.337682,-4.296701 -0.250141,-0.05657 -0.507044,-0.08298 -0.763463,-0.07865 z"
       id="path4812"
       transform="scale(0.26458333)" />
    <path
       style="opacity:1;fill:#000000;fill-opacity:1;stroke-width:0.0892857"
       d="m 58.648442,24.453472 c -6.293133,0.08597 -12.155254,3.680653 -15.876464,8.628104 -1.486534,1.987528 -2.718587,4.207846 -3.46889,6.568778 0.02444,2.402268 -0.04855,4.825231 0.03629,7.21467 0.42779,0.27513 1.070546,0.1555 1.585022,0.249836 5.766697,0.368239 11.562005,1.472337 16.888385,3.755849 0.55354,0.18882 1.064672,0.61427 1.649868,0.65604 3.032052,-1.651361 5.833766,-3.754497 8.20341,-6.273062 2.25137,-2.320917 4.235161,-5.207248 4.408895,-8.536508 0.195412,-2.28181 -0.401063,-4.636269 -1.820166,-6.453912 -2.318043,-3.236184 -6.04804,-5.435825 -10.03145,-5.748459 -0.523351,-0.04868 -1.049383,-0.06725 -1.574899,-0.06134 z"
       id="path4814"
       transform="scale(0.26458333)" />
    <path
       style="opacity:1;fill:#000000;fill-opacity:1;stroke-width:0.0892857"
       d="m 35.907965,49.900947 c -5.521427,0.07403 -11.069251,0.848586 -16.317515,2.598974 -1.329814,0.467594 -2.667481,0.98592 -3.891577,1.668636 -0.127214,1.032434 -0.02862,2.142421 -0.04949,3.206223 0.05664,0.309249 -0.167727,1.027333 0.353621,0.927046 6.687876,-2.803048 14.010222,-3.803199 21.214076,-3.789411 6.962565,0.06556 13.97847,1.088868 20.426549,3.804583 0.552264,-0.125641 0.152515,-0.996735 0.273786,-1.435896 -0.04276,-0.925599 0.08672,-1.88778 -0.06609,-2.790004 -6.349142,-3.007012 -13.434859,-4.116888 -20.415004,-4.182826 -0.509404,-0.0081 -1.018898,-0.01 -1.528355,-0.0073 z"
       id="path4816"
       transform="scale(0.26458333)" />
    <path
       style="opacity:1;fill:#000000;fill-opacity:1;stroke-width:0.0892857"
       d="m 36.436877,57.421874 c -6.578105,0.07081 -13.253767,0.995508 -19.342469,3.584932 -0.454855,0.262803 -1.097261,0.340935 -1.407391,0.75676 0.0046,1.30756 -0.07787,2.620605 0.0028,3.925432 0.293961,0.341091 0.762816,-0.136918 1.11828,-0.19132 7.114342,-2.791792 14.865196,-3.639717 22.477295,-3.397588 6.261767,0.242629 12.531663,1.293886 18.338717,3.725278 0.477649,-0.05146 0.200008,-0.712356 0.287214,-1.0369 -0.02809,-1.042304 0.08963,-2.119592 -0.05999,-3.138079 C 52.748649,59.146441 47.069389,58.040935 41.43618,57.593121 39.772912,57.469389 38.104722,57.41256 36.436877,57.421874 Z"
       id="path4818"
       transform="scale(0.26458333)" />
    <path
       style="opacity:1;fill:#000000;fill-opacity:1;stroke-width:0.0892857"
       d="m 36.43461,64.971574 c -6.358383,0.02532 -12.784955,0.937299 -18.714251,3.30392 -0.358875,0.501589 0.666826,0.551152 0.962786,0.781075 5.9773,2.579865 12.552008,3.521284 19.027948,3.462634 5.413174,-0.1494 10.859845,-0.978694 15.92458,-2.950221 0.72926,-0.331186 1.586387,-0.502913 2.198701,-1.034002 0.128901,-0.440137 -0.548483,-0.441625 -0.809824,-0.602001 -5.940451,-2.159069 -12.2865,-3.021892 -18.58994,-2.961405 z"
       id="path4820"
       transform="scale(0.26458333)" />
  </g>
</svg>
