<?xml version="1.0" encoding="UTF-8" standalone="no"?>
<svg
   xmlns:dc="http://purl.org/dc/elements/1.1/"
   xmlns:cc="http://creativecommons.org/ns#"
   xmlns:rdf="http://www.w3.org/1999/02/22-rdf-syntax-ns#"
   xmlns:svg="http://www.w3.org/2000/svg"
   xmlns="http://www.w3.org/2000/svg"
   xmlns:sodipodi="http://sodipodi.sourceforge.net/DTD/sodipodi-0.dtd"
   xmlns:inkscape="http://www.inkscape.org/namespaces/inkscape"
   width="20mm"
   height="20mm"
   viewBox="0 0 20 20"
   version="1.1"
   id="svg2601"
   inkscape:version="1.0.2 (e86c870879, 2021-01-15, custom)"
   sodipodi:docname="king_accent.svg">
  <defs
     id="defs2595" />
  <sodipodi:namedview
     id="base"
     pagecolor="#ffffff"
     bordercolor="#666666"
     borderopacity="1.0"
     inkscape:pageopacity="0.0"
     inkscape:pageshadow="2"
     inkscape:zoom="7.9195959"
     inkscape:cx="19.61438"
     inkscape:cy="37.788563"
     inkscape:document-units="mm"
     inkscape:current-layer="g16"
     inkscape:document-rotation="0"
     showgrid="false"
     inkscape:snap-page="true"
     inkscape:snap-object-midpoints="true"
     inkscape:snap-others="true"
     inkscape:object-nodes="false"
     inkscape:snap-nodes="false"
     inkscape:snap-global="false"
     inkscape:snap-grids="false"
     inkscape:snap-to-guides="false"
     inkscape:snap-bbox="true"
     inkscape:snap-bbox-midpoints="true"
     inkscape:window-width="1920"
     inkscape:window-height="1009"
     inkscape:window-x="-8"
     inkscape:window-y="-8"
     inkscape:window-maximized="1" />
  <metadata
     id="metadata2598">
    <rdf:RDF>
      <cc:Work
         rdf:about="">
        <dc:format>image/svg+xml</dc:format>
        <dc:type
           rdf:resource="http://purl.org/dc/dcmitype/StillImage" />
        <dc:title />
      </cc:Work>
    </rdf:RDF>
  </metadata>
  <g
     inkscape:label="Calque 1"
     inkscape:groupmode="layer"
     id="layer1">
    <g
       style="fill:none;fill-opacity:1;fill-rule:evenodd;stroke:#000000;stroke-width:1.5;stroke-linecap:round;stroke-linejoin:round;stroke-miterlimit:4;stroke-dasharray:none;stroke-opacity:1"
       id="g16"
       transform="matrix(0.56939502,0,0,0.56939502,-2.7930427,-2.9893239)">
      <path
         style="color:#000000;font-style:normal;font-variant:normal;font-weight:normal;font-stretch:normal;font-size:medium;line-height:normal;font-family:sans-serif;font-variant-ligatures:normal;font-variant-position:normal;font-variant-caps:normal;font-variant-numeric:normal;font-variant-alternates:normal;font-variant-east-asian:normal;font-feature-settings:normal;font-variation-settings:normal;text-indent:0;text-align:start;text-decoration:none;text-decoration-line:none;text-decoration-style:solid;text-decoration-color:#000000;letter-spacing:normal;word-spacing:normal;text-transform:none;writing-mode:lr-tb;direction:ltr;text-orientation:mixed;dominant-baseline:auto;baseline-shift:baseline;text-anchor:start;white-space:normal;shape-padding:0;shape-margin:0;inline-size:0;clip-rule:nonzero;display:inline;overflow:visible;visibility:visible;opacity:1;isolation:auto;mix-blend-mode:normal;color-interpolation:sRGB;color-interpolation-filters:linearRGB;solid-color:#000000;solid-opacity:1;vector-effect:none;fill:#000000;fill-opacity:1;fill-rule:nonzero;stroke:none;stroke-linecap:butt;stroke-linejoin:miter;stroke-miterlimit:4;stroke-dasharray:none;stroke-dashoffset:0;stroke-opacity:1;color-rendering:auto;image-rendering:auto;shape-rendering:auto;text-rendering:auto;enable-background:accumulate;stop-color:#000000;stop-opacity:1"
         d="M 22.5,5.25 A 0.75,0.75 0 0 0 21.75,6 v 5.630859 a 0.75,0.75 0 0 0 0.75,0.75 0.75,0.75 0 0 0 0.75,-0.75 V 6 A 0.75,0.75 0 0 0 22.5,5.25 Z"
         id="path2" />
      <path
         style="color:#000000;font-style:normal;font-variant:normal;font-weight:normal;font-stretch:normal;font-size:medium;line-height:normal;font-family:sans-serif;font-variant-ligatures:normal;font-variant-position:normal;font-variant-caps:normal;font-variant-numeric:normal;font-variant-alternates:normal;font-variant-east-asian:normal;font-feature-settings:normal;font-variation-settings:normal;text-indent:0;text-align:start;text-decoration:none;text-decoration-line:none;text-decoration-style:solid;text-decoration-color:#000000;letter-spacing:normal;word-spacing:normal;text-transform:none;writing-mode:lr-tb;direction:ltr;text-orientation:mixed;dominant-baseline:auto;baseline-shift:baseline;text-anchor:start;white-space:normal;shape-padding:0;shape-margin:0;inline-size:0;clip-rule:nonzero;display:inline;overflow:visible;visibility:visible;opacity:1;isolation:auto;mix-blend-mode:normal;color-interpolation:sRGB;color-interpolation-filters:linearRGB;solid-color:#000000;solid-opacity:1;vector-effect:none;fill:#000000;fill-opacity:1;fill-rule:nonzero;stroke:none;stroke-linecap:butt;stroke-linejoin:miter;stroke-miterlimit:4;stroke-dasharray:none;stroke-dashoffset:0;stroke-opacity:1;color-rendering:auto;image-rendering:auto;shape-rendering:auto;text-rendering:auto;enable-background:accumulate;stop-color:#000000;stop-opacity:1"
         d="M 20,7.25 A 0.75,0.75 0 0 0 19.25,8 0.75,0.75 0 0 0 20,8.75 h 5 A 0.75,0.75 0 0 0 25.75,8 0.75,0.75 0 0 0 25,7.25 Z"
         id="path4" />
      <g
         id="path6"
         style="opacity:1">
        <path
           style="color:#000000;font-style:normal;font-variant:normal;font-weight:normal;font-stretch:normal;font-size:medium;line-height:normal;font-family:sans-serif;font-variant-ligatures:normal;font-variant-position:normal;font-variant-caps:normal;font-variant-numeric:normal;font-variant-alternates:normal;font-variant-east-asian:normal;font-feature-settings:normal;font-variation-settings:normal;text-indent:0;text-align:start;text-decoration:none;text-decoration-line:none;text-decoration-style:solid;text-decoration-color:#000000;letter-spacing:normal;word-spacing:normal;text-transform:none;writing-mode:lr-tb;direction:ltr;text-orientation:mixed;dominant-baseline:auto;baseline-shift:baseline;text-anchor:start;white-space:normal;shape-padding:0;shape-margin:0;inline-size:0;clip-rule:nonzero;display:inline;overflow:visible;visibility:visible;isolation:auto;mix-blend-mode:normal;color-interpolation:sRGB;color-interpolation-filters:linearRGB;solid-color:#000000;solid-opacity:1;vector-effect:none;fill:#ffffff;fill-opacity:1;fill-rule:nonzero;stroke:none;stroke-width:1.5;stroke-linecap:butt;stroke-linejoin:miter;stroke-miterlimit:4;stroke-dasharray:none;stroke-dashoffset:0;stroke-opacity:1;color-rendering:auto;image-rendering:auto;shape-rendering:auto;text-rendering:auto;enable-background:accumulate;stop-color:#000000;stop-opacity:1"
           d="m 22.5,25 c 0,0 4.5,-7.5 3,-10.5 0,0 -1,-2.5 -3,-2.5 -2,0 -3,2.5 -3,2.5 -1.5,3 3,10.5 3,10.5"
           id="path2438" />
        <path
           style="color:#000000;font-style:normal;font-variant:normal;font-weight:normal;font-stretch:normal;font-size:medium;line-height:normal;font-family:sans-serif;font-variant-ligatures:normal;font-variant-position:normal;font-variant-caps:normal;font-variant-numeric:normal;font-variant-alternates:normal;font-variant-east-asian:normal;font-feature-settings:normal;font-variation-settings:normal;text-indent:0;text-align:start;text-decoration:none;text-decoration-line:none;text-decoration-style:solid;text-decoration-color:#000000;letter-spacing:normal;word-spacing:normal;text-transform:none;writing-mode:lr-tb;direction:ltr;text-orientation:mixed;dominant-baseline:auto;baseline-shift:baseline;text-anchor:start;white-space:normal;shape-padding:0;shape-margin:0;inline-size:0;clip-rule:nonzero;display:inline;overflow:visible;visibility:visible;isolation:auto;mix-blend-mode:normal;color-interpolation:sRGB;color-interpolation-filters:linearRGB;solid-color:#000000;solid-opacity:1;vector-effect:none;fill:#000000;fill-opacity:1;fill-rule:nonzero;stroke:none;stroke-linecap:butt;stroke-linejoin:miter;stroke-miterlimit:4;stroke-dasharray:none;stroke-dashoffset:0;stroke-opacity:1;color-rendering:auto;image-rendering:auto;shape-rendering:auto;text-rendering:auto;enable-background:accumulate;stop-color:#000000;stop-opacity:1"
           d="m 22.5,11.25 c -1.3125,0 -2.259755,0.811022 -2.835938,1.53125 -0.560535,0.700669 -0.822851,1.362876 -0.83789,1.400391 -0.489461,0.992512 -0.451571,2.163239 -0.226563,3.363281 0.226237,1.206597 0.665218,2.4641 1.146485,3.61914 0.962534,2.310082 2.111328,4.222657 2.111328,4.222657 L 22.5,25 l 0.642578,0.386719 c 0,0 1.148794,-1.912575 2.111328,-4.222657 0.481267,-1.15504 0.920248,-2.412543 1.146485,-3.61914 0.225008,-1.200042 0.262898,-2.370769 -0.226563,-3.363281 -0.01504,-0.03752 -0.277355,-0.699722 -0.83789,-1.400391 C 24.759755,12.061022 23.8125,11.25 22.5,11.25 Z m 0,1.5 c 0.6875,0 1.240245,0.438978 1.664062,0.96875 0.423818,0.529772 0.638672,1.060547 0.638672,1.060547 l 0.01172,0.02734 0.01563,0.0293 c 0.252016,0.504032 0.293294,1.388237 0.09766,2.43164 -0.195638,1.043403 -0.600407,2.2234 -1.05664,3.31836 -0.621291,1.491098 -0.982103,2.046608 -1.371094,2.742187 -0.388991,-0.695579 -0.749803,-1.251089 -1.371094,-2.742187 -0.456233,-1.09496 -0.861002,-2.274957 -1.05664,-3.31836 -0.195638,-1.043403 -0.15436,-1.927608 0.09766,-2.43164 l 0.01563,-0.0293 0.01172,-0.02734 c 0,0 0.214854,-0.530775 0.638672,-1.060547 C 21.259755,13.188978 21.8125,12.75 22.5,12.75 Z"
           id="path2440" />
      </g>
      <g
         id="path8"
         style="opacity:1">
        <path
           style="color:#000000;font-style:normal;font-variant:normal;font-weight:normal;font-stretch:normal;font-size:medium;line-height:normal;font-family:sans-serif;font-variant-ligatures:normal;font-variant-position:normal;font-variant-caps:normal;font-variant-numeric:normal;font-variant-alternates:normal;font-variant-east-asian:normal;font-feature-settings:normal;font-variation-settings:normal;text-indent:0;text-align:start;text-decoration:none;text-decoration-line:none;text-decoration-style:solid;text-decoration-color:#000000;letter-spacing:normal;word-spacing:normal;text-transform:none;writing-mode:lr-tb;direction:ltr;text-orientation:mixed;dominant-baseline:auto;baseline-shift:baseline;text-anchor:start;white-space:normal;shape-padding:0;shape-margin:0;inline-size:0;clip-rule:nonzero;display:inline;overflow:visible;visibility:visible;isolation:auto;mix-blend-mode:normal;color-interpolation:sRGB;color-interpolation-filters:linearRGB;solid-color:#000000;solid-opacity:1;vector-effect:none;fill:#ffffff;fill-opacity:1;fill-rule:nonzero;stroke:none;stroke-width:1.5;stroke-linecap:butt;stroke-linejoin:miter;stroke-miterlimit:4;stroke-dasharray:none;stroke-dashoffset:0;stroke-opacity:1;color-rendering:auto;image-rendering:auto;shape-rendering:auto;text-rendering:auto;enable-background:accumulate;stop-color:#000000;stop-opacity:1"
           d="m 11.5,37 c 5.5,3.5 15.5,3.5 21,0 v -7 c 0,0 9,-4.5 6,-10.5 -4,-6.5 -13.5,-3.5 -16,4 V 27 23.5 C 19,16 9.5,13 6.5,19.5 c -3,6 5,10 5,10 z"
           id="path2432" />
        <path
           style="color:#000000;font-style:normal;font-variant:normal;font-weight:normal;font-stretch:normal;font-size:medium;line-height:normal;font-family:sans-serif;font-variant-ligatures:normal;font-variant-position:normal;font-variant-caps:normal;font-variant-numeric:normal;font-variant-alternates:normal;font-variant-east-asian:normal;font-feature-settings:normal;font-variation-settings:normal;text-indent:0;text-align:start;text-decoration:none;text-decoration-line:none;text-decoration-style:solid;text-decoration-color:#000000;letter-spacing:normal;word-spacing:normal;text-transform:none;writing-mode:lr-tb;direction:ltr;text-orientation:mixed;dominant-baseline:auto;baseline-shift:baseline;text-anchor:start;white-space:normal;shape-padding:0;shape-margin:0;inline-size:0;clip-rule:nonzero;display:inline;overflow:visible;visibility:visible;isolation:auto;mix-blend-mode:normal;color-interpolation:sRGB;color-interpolation-filters:linearRGB;solid-color:#000000;solid-opacity:1;vector-effect:none;fill:#000000;fill-opacity:1;fill-rule:nonzero;stroke:none;stroke-linecap:butt;stroke-linejoin:miter;stroke-miterlimit:4;stroke-dasharray:none;stroke-dashoffset:0;stroke-opacity:1;color-rendering:auto;image-rendering:auto;shape-rendering:auto;text-rendering:auto;enable-background:accumulate;stop-color:#000000;stop-opacity:1"
           d="m 11.945312,15.181641 c -0.842925,0.01091 -1.664755,0.153877 -2.4374995,0.445312 -1.5407306,0.581076 -2.8568417,1.772332 -3.6796875,3.544922 -0.8208593,1.64627 -0.9076717,3.240813 -0.5371094,4.617187 0.3711551,1.378577 1.1667288,2.535474 2.0351563,3.470704 1.4530382,1.56481 2.9041531,2.384389 3.4238281,2.664062 V 37 a 0.750075,0.750075 0 0 0 0.347656,0.632812 C 14.021351,39.493346 18.012097,40.375 22,40.375 c 3.987903,0 7.978649,-0.881654 10.902344,-2.742188 A 0.750075,0.750075 0 0 0 33.25,37 v -6.572266 c 0.534954,-0.283443 2.215013,-1.205247 3.90625,-2.896484 0.990533,-0.990533 1.908233,-2.199308 2.382812,-3.623047 0.47458,-1.423739 0.464712,-3.076435 -0.36914,-4.744141 a 0.750075,0.750075 0 0 0 -0.03125,-0.05664 c -2.165889,-3.51957 -5.959484,-4.524641 -9.400391,-3.580078 -3.026632,0.83084 -5.772772,3.155937 -7.314453,6.40625 -1.929358,-3.25057 -4.873604,-5.572151 -7.912109,-6.40625 -0.857814,-0.235478 -1.723481,-0.356619 -2.566407,-0.345703 z m 20.376954,1.488281 c 2.144705,0.0094 4.140645,0.98361 5.515625,3.195312 0.650614,1.319322 0.645606,2.471383 0.279297,3.570313 -0.369171,1.107511 -1.138971,2.148736 -2.023438,3.033203 -1.768934,1.768934 -3.929687,2.861328 -3.929688,2.861328 A 0.750075,0.750075 0 0 0 31.75,30 v 6.507812 C 29.186645,38.029261 25.620116,38.875 22,38.875 c -3.620116,0 -7.186645,-0.845739 -9.75,-2.367188 V 29.5 a 0.750075,0.750075 0 0 0 -0.414062,-0.669922 c 0,0 -1.8989649,-0.960303 -3.4121099,-2.589844 -0.7565725,-0.81477 -1.3984988,-1.782873 -1.6835937,-2.841796 -0.2850949,-1.058924 -0.2457769,-2.211572 0.4296875,-3.5625 a 0.750075,0.750075 0 0 0 0.011719,-0.02148 c 0.6776869,-1.468322 1.6685359,-2.336776 2.8574211,-2.785156 1.188886,-0.44838 2.602346,-0.460684 4.074219,-0.05664 2.909123,0.798583 5.966468,3.245954 7.636719,6.728516 V 27 a 0.750075,0.750075 0 0 0 0.0039,0.07227 0.750075,0.750075 0 0 0 0.01172,0.07227 0.750075,0.750075 0 0 0 0.07617,0.205078 0.750075,0.750075 0 0 0 0.03711,0.06055 0.750075,0.750075 0 0 0 0.04492,0.05859 0.750075,0.750075 0 0 0 0.103516,0.103516 0.750075,0.750075 0 0 0 0.05859,0.04297 0.750075,0.750075 0 0 0 0.126953,0.06836 0.750075,0.750075 0 0 0 0.429687,0.04297 0.750075,0.750075 0 0 0 0.07031,-0.01758 0.750075,0.750075 0 0 0 0.134765,-0.05469 0.750075,0.750075 0 0 0 0.0625,-0.03711 0.750075,0.750075 0 0 0 0.05859,-0.04297 0.750075,0.750075 0 0 0 0.05469,-0.04883 0.750075,0.750075 0 0 0 0.05078,-0.05273 0.750075,0.750075 0 0 0 0.04297,-0.05859 0.750075,0.750075 0 0 0 0.03906,-0.06055 0.750075,0.750075 0 0 0 0.03125,-0.06641 0.750075,0.750075 0 0 0 0.02734,-0.06836 0.750075,0.750075 0 0 0 0.0293,-0.140625 A 0.750075,0.750075 0 0 0 23.25,27 v -3.345703 c 1.187056,-3.46066 3.977428,-5.883012 6.886719,-6.681641 0.733523,-0.201359 1.467062,-0.305867 2.185547,-0.302734 z"
           id="path2434" />
      </g>
      <path
         style="color:#000000;font-style:normal;font-variant:normal;font-weight:normal;font-stretch:normal;font-size:medium;line-height:normal;font-family:sans-serif;font-variant-ligatures:normal;font-variant-position:normal;font-variant-caps:normal;font-variant-numeric:normal;font-variant-alternates:normal;font-variant-east-asian:normal;font-feature-settings:normal;font-variation-settings:normal;text-indent:0;text-align:start;text-decoration:none;text-decoration-line:none;text-decoration-style:solid;text-decoration-color:#000000;letter-spacing:normal;word-spacing:normal;text-transform:none;writing-mode:lr-tb;direction:ltr;text-orientation:mixed;dominant-baseline:auto;baseline-shift:baseline;text-anchor:start;white-space:normal;shape-padding:0;shape-margin:0;inline-size:0;clip-rule:nonzero;display:inline;overflow:visible;visibility:visible;opacity:1;isolation:auto;mix-blend-mode:normal;color-interpolation:sRGB;color-interpolation-filters:linearRGB;solid-color:#000000;solid-opacity:1;vector-effect:none;fill:#000000;fill-opacity:1;fill-rule:nonzero;stroke:none;stroke-linecap:butt;stroke-linejoin:miter;stroke-miterlimit:4;stroke-dasharray:none;stroke-dashoffset:0;stroke-opacity:1;color-rendering:auto;image-rendering:auto;shape-rendering:auto;text-rendering:auto;enable-background:accumulate;stop-color:#000000;stop-opacity:1"
         d="m 22,27 c -3.971774,0 -7.941624,0.750296 -10.859375,2.341797 a 0.75,0.75 0 0 0 -0.298828,1.017578 0.75,0.75 0 0 0 1.017578,0.298828 C 14.441624,29.249704 18.221774,28.5 22,28.5 c 3.778226,0 7.558376,0.749704 10.140625,2.158203 a 0.75,0.75 0 0 0 1.017578,-0.298828 0.75,0.75 0 0 0 -0.298828,-1.017578 C 29.941624,27.750296 25.971774,27 22,27 Z"
         id="path10" />
      <path
         style="color:#000000;font-style:normal;font-variant:normal;font-weight:normal;font-stretch:normal;font-size:medium;line-height:normal;font-family:sans-serif;font-variant-ligatures:normal;font-variant-position:normal;font-variant-caps:normal;font-variant-numeric:normal;font-variant-alternates:normal;font-variant-east-asian:normal;font-feature-settings:normal;font-variation-settings:normal;text-indent:0;text-align:start;text-decoration:none;text-decoration-line:none;text-decoration-style:solid;text-decoration-color:#000000;letter-spacing:normal;word-spacing:normal;text-transform:none;writing-mode:lr-tb;direction:ltr;text-orientation:mixed;dominant-baseline:auto;baseline-shift:baseline;text-anchor:start;white-space:normal;shape-padding:0;shape-margin:0;inline-size:0;clip-rule:nonzero;display:inline;overflow:visible;visibility:visible;opacity:1;isolation:auto;mix-blend-mode:normal;color-interpolation:sRGB;color-interpolation-filters:linearRGB;solid-color:#000000;solid-opacity:1;vector-effect:none;fill:#000000;fill-opacity:1;fill-rule:nonzero;stroke:none;stroke-linecap:butt;stroke-linejoin:miter;stroke-miterlimit:4;stroke-dasharray:none;stroke-dashoffset:0;stroke-opacity:1;color-rendering:auto;image-rendering:auto;shape-rendering:auto;text-rendering:auto;enable-background:accumulate;stop-color:#000000;stop-opacity:1"
         d="m 22,30.5 c -3.971774,0 -7.941624,0.750296 -10.859375,2.341797 a 0.75,0.75 0 0 0 -0.298828,1.017578 0.75,0.75 0 0 0 1.017578,0.298828 C 14.441624,32.749704 18.221774,32 22,32 c 3.778226,0 7.558376,0.749704 10.140625,2.158203 a 0.75,0.75 0 0 0 1.017578,-0.298828 0.75,0.75 0 0 0 -0.298828,-1.017578 C 29.941624,31.250296 25.971774,30.5 22,30.5 Z"
         id="path12" />
      <path
         style="color:#000000;font-style:normal;font-variant:normal;font-weight:normal;font-stretch:normal;font-size:medium;line-height:normal;font-family:sans-serif;font-variant-ligatures:normal;font-variant-position:normal;font-variant-caps:normal;font-variant-numeric:normal;font-variant-alternates:normal;font-variant-east-asian:normal;font-feature-settings:normal;font-variation-settings:normal;text-indent:0;text-align:start;text-decoration:none;text-decoration-line:none;text-decoration-style:solid;text-decoration-color:#000000;letter-spacing:normal;word-spacing:normal;text-transform:none;writing-mode:lr-tb;direction:ltr;text-orientation:mixed;dominant-baseline:auto;baseline-shift:baseline;text-anchor:start;white-space:normal;shape-padding:0;shape-margin:0;inline-size:0;clip-rule:nonzero;display:inline;overflow:visible;visibility:visible;opacity:1;isolation:auto;mix-blend-mode:normal;color-interpolation:sRGB;color-interpolation-filters:linearRGB;solid-color:#000000;solid-opacity:1;vector-effect:none;fill:#000000;fill-opacity:1;fill-rule:nonzero;stroke:none;stroke-linecap:butt;stroke-linejoin:miter;stroke-miterlimit:4;stroke-dasharray:none;stroke-dashoffset:0;stroke-opacity:1;color-rendering:auto;image-rendering:auto;shape-rendering:auto;text-rendering:auto;enable-background:accumulate;stop-color:#000000;stop-opacity:1"
         d="m 22,34 c -3.971774,0 -7.941624,0.750296 -10.859375,2.341797 a 0.75,0.75 0 0 0 -0.298828,1.017578 0.75,0.75 0 0 0 1.017578,0.298828 C 14.441624,36.249704 18.221774,35.5 22,35.5 c 3.778226,0 7.558376,0.749704 10.140625,2.158203 a 0.75,0.75 0 0 0 1.017578,-0.298828 0.75,0.75 0 0 0 -0.298828,-1.017578 C 29.941624,34.750296 25.971774,34 22,34 Z"
         id="path14" />
    </g>
  </g>
</svg>
