<?xml version="1.0" encoding="UTF-8" standalone="no"?>
<svg
   xmlns:dc="http://purl.org/dc/elements/1.1/"
   xmlns:cc="http://creativecommons.org/ns#"
   xmlns:rdf="http://www.w3.org/1999/02/22-rdf-syntax-ns#"
   xmlns:svg="http://www.w3.org/2000/svg"
   xmlns="http://www.w3.org/2000/svg"
   xmlns:sodipodi="http://sodipodi.sourceforge.net/DTD/sodipodi-0.dtd"
   xmlns:inkscape="http://www.inkscape.org/namespaces/inkscape"
   width="20mm"
   height="20mm"
   viewBox="0 0 20 20"
   version="1.1"
   id="svg2601"
   inkscape:version="1.0.2 (e86c870879, 2021-01-15, custom)"
   sodipodi:docname="knight_accent_inverse.svg">
  <defs
     id="defs2595" />
  <sodipodi:namedview
     id="base"
     pagecolor="#ffffff"
     bordercolor="#666666"
     borderopacity="1.0"
     inkscape:pageopacity="0.0"
     inkscape:pageshadow="2"
     inkscape:zoom="11.2"
     inkscape:cx="29.797936"
     inkscape:cy="34.749814"
     inkscape:document-units="mm"
     inkscape:current-layer="g16"
     inkscape:document-rotation="0"
     showgrid="false"
     inkscape:snap-page="true"
     inkscape:snap-object-midpoints="true"
     inkscape:snap-others="true"
     inkscape:object-nodes="false"
     inkscape:snap-nodes="false"
     inkscape:snap-global="false"
     inkscape:snap-grids="false"
     inkscape:snap-to-guides="false"
     inkscape:snap-bbox="true"
     inkscape:snap-bbox-midpoints="true"
     inkscape:window-width="1920"
     inkscape:window-height="1009"
     inkscape:window-x="-8"
     inkscape:window-y="-8"
     inkscape:window-maximized="1" />
  <metadata
     id="metadata2598">
    <rdf:RDF>
      <cc:Work
         rdf:about="">
        <dc:format>image/svg+xml</dc:format>
        <dc:type
           rdf:resource="http://purl.org/dc/dcmitype/StillImage" />
        <dc:title></dc:title>
      </cc:Work>
    </rdf:RDF>
  </metadata>
  <g
     inkscape:label="Calque 1"
     inkscape:groupmode="layer"
     id="layer1">
    <g
       style="fill:none;fill-opacity:1;fill-rule:evenodd;stroke:#000000;stroke-width:1.5;stroke-linecap:round;stroke-linejoin:round;stroke-miterlimit:4;stroke-dasharray:none;stroke-opacity:1"
       id="g16"
       transform="matrix(0.56939502,0,0,0.56939502,-2.7930427,-2.9893239)">
      <path
         style="fill:#000000;stroke-width:0.288211"
         d="M 35.33208,3.980771 C 33.529476,5.4311548 32.215606,7.4031911 31.076186,9.3781971 30.558193,10.122096 29.535103,9.8948604 28.766964,9.9524507 27.392716,9.8914394 25.992215,10.087455 24.642558,9.79498 23.980369,9.4638007 23.793935,8.6453286 23.332298,8.10809 22.484477,6.9314348 21.690468,5.6586824 20.555294,4.736735 20.137792,4.4913486 20.007029,5.0839194 20.075035,5.3849284 c 0.0064,1.1442844 0.208051,2.309165 0.865764,3.2712863 0.547357,0.8538981 0.19932,1.9241023 -0.03708,2.8275083 -0.795972,2.495171 -2.443042,4.614337 -4.131562,6.591112 -1.773273,2.587844 -3.225448,5.379476 -4.804965,8.086549 -2.8062214,5.048806 -5.6181405,10.11598 -7.8645867,15.444724 -0.5367642,1.240288 -0.9278761,2.565144 -0.830204,3.931409 0.090673,1.819504 0.3035622,3.780064 1.4034597,5.296979 0.4867251,0.616777 1.2115554,1.054089 1.9534703,1.257396 1.1259551,-0.0795 2.2922747,0.118112 3.3954767,-0.150915 0.645771,-0.330361 0.344393,-1.210628 0.42292,-1.784473 -0.07375,-0.917068 0.312665,-1.895487 1.160332,-2.346561 0.757769,-0.340831 1.655216,-0.332902 2.454137,-0.168631 1.222326,0.416891 1.704843,1.902556 1.282609,3.054373 -0.3756,1.161786 -1.143549,2.204626 -1.342425,3.406982 0.567028,0.237101 1.253824,-0.147477 1.653879,-0.589599 1.734495,-1.908646 3.095438,-4.155116 5.036835,-5.865333 2.042297,-1.899897 4.495299,-3.27299 6.682971,-4.990306 3.900267,-2.927125 7.648008,-6.129542 10.740199,-9.918309 1.306914,-1.699901 2.587066,-3.652734 2.652126,-5.865108 -0.220928,-0.979221 0.645167,-2.081631 1.684047,-1.869768 0.788286,0.04134 1.35152,0.777838 1.346959,1.539829 0.208719,2.126504 -0.745205,4.11767 -1.688756,5.970111 -0.04727,3.218553 -0.03806,6.457724 -0.777588,9.604143 -0.931013,4.597986 -3.146616,8.949149 -6.318105,12.428371 -2.750278,3.151448 -6.154476,5.720549 -8.553894,9.175404 -1.641673,2.499306 -2.560639,5.486728 -2.66168,8.460352 0.409659,0.294889 1.084981,0.05643 1.598969,0.133452 15.583322,0 31.166644,0 46.749966,0 0.427558,-0.31336 0.08406,-1.054764 0.183621,-1.541647 C 72.271788,62.015722 72.043285,53.21288 70.486579,44.571208 69.148864,37.040027 66.936981,29.465521 62.51958,23.125407 59.205586,18.322833 54.432426,14.546805 48.966092,12.492011 45.256936,11.047931 41.302672,10.390152 37.372398,9.8964728 36.689187,9.7697016 36.247816,9.1162492 36.272022,8.4384301 36.107641,6.9844102 36.147606,5.4687868 35.609703,4.086449 35.535663,3.9770219 35.458528,3.9522802 35.33208,3.980771 Z M 22.297063,16.378406 c 1.244684,-0.124704 2.171797,1.175136 2.043283,2.337298 -0.117598,1.734833 -0.998727,3.325607 -2.007185,4.697265 -0.78697,0.974608 -1.845232,2.112449 -3.224051,1.927666 -1.170362,-0.147956 -1.918163,-1.443712 -1.7327,-2.533482 0.130314,-1.573774 0.969596,-3.049643 1.852503,-4.324254 0.754398,-0.964557 1.710003,-2.171813 3.06815,-2.104493 z M 8.4572546,40.766312 c 1.115599,-0.06283 2.1478484,0.706285 2.4909324,1.745605 0.296043,0.963456 0.124788,2.157024 -0.705392,2.829241 C 9.5388599,46.097235 8.3790802,46.14395 7.4470356,45.870943 5.8950277,45.296816 5.3415154,43.184192 6.2922504,41.866862 6.7511077,41.12593 7.601834,40.744772 8.4572546,40.766312 Z"
         id="path6986"
         transform="matrix(0.46467448,0,0,0.46467448,4.9052812,5.2500001)" />
    </g>
  </g>
</svg>
