<?xml version="1.0" encoding="UTF-8" standalone="no"?>
<svg
   xmlns:dc="http://purl.org/dc/elements/1.1/"
   xmlns:cc="http://creativecommons.org/ns#"
   xmlns:rdf="http://www.w3.org/1999/02/22-rdf-syntax-ns#"
   xmlns:svg="http://www.w3.org/2000/svg"
   xmlns="http://www.w3.org/2000/svg"
   xmlns:sodipodi="http://sodipodi.sourceforge.net/DTD/sodipodi-0.dtd"
   xmlns:inkscape="http://www.inkscape.org/namespaces/inkscape"
   width="20mm"
   height="20mm"
   viewBox="0 0 20 20"
   version="1.1"
   id="svg2601"
   inkscape:version="1.0.2 (e86c870879, 2021-01-15, custom)"
   sodipodi:docname="queen_accent_inverse.svg">
  <defs
     id="defs2595" />
  <sodipodi:namedview
     id="base"
     pagecolor="#ffffff"
     bordercolor="#666666"
     borderopacity="1.0"
     inkscape:pageopacity="0.0"
     inkscape:pageshadow="2"
     inkscape:zoom="7.9195959"
     inkscape:cx="19.61438"
     inkscape:cy="37.788563"
     inkscape:document-units="mm"
     inkscape:current-layer="g16"
     inkscape:document-rotation="0"
     showgrid="false"
     inkscape:snap-page="true"
     inkscape:snap-object-midpoints="true"
     inkscape:snap-others="true"
     inkscape:object-nodes="false"
     inkscape:snap-nodes="false"
     inkscape:snap-global="false"
     inkscape:snap-grids="false"
     inkscape:snap-to-guides="false"
     inkscape:snap-bbox="true"
     inkscape:snap-bbox-midpoints="true"
     inkscape:window-width="1920"
     inkscape:window-height="1009"
     inkscape:window-x="-8"
     inkscape:window-y="-8"
     inkscape:window-maximized="1" />
  <metadata
     id="metadata2598">
    <rdf:RDF>
      <cc:Work
         rdf:about="">
        <dc:format>image/svg+xml</dc:format>
        <dc:type
           rdf:resource="http://purl.org/dc/dcmitype/StillImage" />
        <dc:title></dc:title>
      </cc:Work>
    </rdf:RDF>
  </metadata>
  <g
     inkscape:label="Calque 1"
     inkscape:groupmode="layer"
     id="layer1">
    <g
       style="fill:none;fill-opacity:1;fill-rule:evenodd;stroke:#000000;stroke-width:1.5;stroke-linecap:round;stroke-linejoin:round;stroke-miterlimit:4;stroke-dasharray:none;stroke-opacity:1"
       id="g16"
       transform="matrix(0.56939502,0,0,0.56939502,-2.7930427,-2.9893239)">
      <path
         style="fill:#000000;stroke-width:0.407592;stroke-linecap:butt;stroke-miterlimit:4;stroke-dasharray:none"
         d="M 5.3314246,15.061364 C 3.69597,15.05571 2.4504936,16.814757 2.9426703,18.361377 3.3206977,20.11762 5.7126516,20.822958 7.0252057,19.634179 8.4915802,18.512422 8.118628,15.919268 6.3938604,15.258166 6.0599745,15.115268 5.6942359,15.048545 5.3314246,15.061364 Z"
         id="path4713"
         transform="matrix(0.46467448,0,0,0.46467448,4.9052812,5.2500001)" />
      <path
         style="fill:#000000;stroke-width:0.407592;stroke-linecap:butt;stroke-miterlimit:4;stroke-dasharray:none"
         d="m 21.047238,8.2480135 c -1.816021,-0.1427197 -3.063375,2.0574515 -2.259773,3.6149455 0.728949,1.864495 3.756452,1.929775 4.565663,0.09396 0.831345,-1.241508 0.04525,-3.0593222 -1.273295,-3.5740067 C 21.749422,8.267236 21.395379,8.234912 21.047238,8.2480135 Z"
         id="path4715"
         transform="matrix(0.46467448,0,0,0.46467448,4.9052812,5.2500001)" />
      <path
         style="fill:#000000;stroke-width:0.407592;stroke-linecap:butt;stroke-miterlimit:4;stroke-dasharray:none"
         d="m 37.713522,6.2343672 c -1.925195,-0.013064 -3.23817,2.484801 -2.032883,4.0297588 0.836624,1.257721 2.766621,1.515663 3.84874,0.428871 1.40505,-1.1451738 0.92612,-3.5795068 -0.708537,-4.242838 C 38.47447,6.2953452 38.092583,6.2218217 37.713522,6.2343672 Z"
         id="path4717"
         transform="matrix(0.46467448,0,0,0.46467448,4.9052812,5.2500001)" />
      <path
         style="fill:#000000;stroke-width:0.407592;stroke-linecap:butt;stroke-miterlimit:4;stroke-dasharray:none"
         d="m 54.427156,9.1602582 c -1.80907,-0.00148 -3.240602,2.2407968 -2.185786,3.8105148 0.566634,1.086345 1.896992,1.648861 3.054626,1.188705 1.676406,-0.435277 2.26551,-2.675507 1.212134,-3.974763 C 56.031886,9.5351574 55.235224,9.132284 54.427156,9.1602582 Z"
         id="path4719"
         transform="matrix(0.46467448,0,0,0.46467448,4.9052812,5.2500001)" />
      <path
         style="fill:#000000;stroke-width:0.407592;stroke-linecap:butt;stroke-miterlimit:4;stroke-dasharray:none"
         d="m 70.126939,15.079614 c -1.60473,-0.03119 -2.889769,1.679848 -2.396892,3.212709 0.318319,1.36422 1.843228,2.264419 3.186814,1.800074 1.949143,-0.436748 2.514147,-3.45136 0.804965,-4.531382 -0.462217,-0.325617 -1.030125,-0.494614 -1.594887,-0.481401 z"
         id="path4721"
         transform="matrix(0.46467448,0,0,0.46467448,4.9052812,5.2500001)" />
      <path
         style="fill:#000000;stroke-width:0.407592;stroke-linecap:butt;stroke-miterlimit:4;stroke-dasharray:none"
         d="m 65.2678,28.78844 c -2.899096,4.422352 -5.743174,8.887055 -8.527848,13.382548 0.08828,0.532879 0.913493,0.278572 1.301121,0.461848 1.695077,0.224754 3.362419,0.534787 5.029596,0.831916 0.440185,-0.363152 0.222653,-1.162971 0.428181,-1.676981 0.702564,-4.280742 1.45469,-8.554126 2.109531,-12.842235 0.0043,-0.175365 -0.216572,-0.278413 -0.340581,-0.157096 z"
         id="path4723"
         transform="matrix(0.46467448,0,0,0.46467448,4.9052812,5.2500001)" />
      <path
         style="fill:#000000;stroke-width:0.407592;stroke-linecap:butt;stroke-miterlimit:4;stroke-dasharray:none"
         d="m 52.796756,23.548027 c -1.312549,2.843502 -2.406681,5.816417 -3.628461,8.711829 -1.217375,3.083287 -2.579941,6.142458 -3.705978,9.241124 0.525929,0.367821 1.404342,0.11467 2.058685,0.251877 1.844691,0.05831 3.706585,0.277803 5.533172,0.292323 0.226868,-1.023962 0.02843,-2.220999 0.09525,-3.309599 -0.02147,-5.024211 0.0492,-10.053428 -0.06511,-15.074603 -0.06877,-0.130811 -0.156803,-0.14065 -0.287558,-0.112951 z"
         id="path4725"
         transform="matrix(0.46467448,0,0,0.46467448,4.9052812,5.2500001)" />
      <path
         style="fill:#000000;stroke-width:0.407592;stroke-linecap:butt;stroke-miterlimit:4;stroke-dasharray:none"
         d="m 37.680721,20.642605 c -0.50382,1.546951 -0.692591,3.225082 -1.072237,4.820303 -1.048956,5.270936 -2.15326,10.545801 -3.145939,15.819018 0.38961,0.49026 1.197327,0.19014 1.745071,0.297019 2.237426,-0.04376 4.497071,0.128119 6.722109,-0.101204 0.490497,-0.274082 -0.03706,-0.937743 -7.53e-4,-1.355402 -1.325098,-6.464423 -2.534865,-12.955156 -3.949595,-19.399583 -0.08301,-0.122163 -0.171878,-0.121955 -0.298656,-0.08015 z"
         id="path4727"
         transform="matrix(0.46467448,0,0,0.46467448,4.9052812,5.2500001)" />
      <path
         style="fill:#000000;stroke-width:0.407592;stroke-linecap:butt;stroke-miterlimit:4;stroke-dasharray:none"
         d="m 22.61623,23.002751 c -0.221194,1.521153 -0.07767,3.113372 -0.144321,4.659613 -0.03169,4.785248 -0.01821,9.570648 -0.02708,14.355967 0.325057,0.444208 1.093928,0.06116 1.582309,0.141313 1.95576,-0.194384 3.923363,-0.228062 5.873485,-0.407169 0.469707,-0.355103 -0.210325,-1.012699 -0.245148,-1.469759 -2.206712,-5.770436 -4.410829,-11.545094 -6.734424,-17.268373 -0.108782,-0.09208 -0.191132,-0.08489 -0.304821,-0.01159 z"
         id="path4729"
         transform="matrix(0.46467448,0,0,0.46467448,4.9052812,5.2500001)" />
      <path
         style="fill:#000000;stroke-width:0.407592;stroke-linecap:butt;stroke-miterlimit:4;stroke-dasharray:none"
         d="m 10.037167,28.795098 c -0.01769,1.206587 0.369593,2.439201 0.504199,3.653153 0.623041,3.649411 1.174759,7.327247 1.855454,10.957066 0.700022,0.209127 1.498322,-0.147542 2.227797,-0.160147 1.403233,-0.254212 2.884739,-0.25185 4.235848,-0.717077 0.276021,-0.440127 -0.417923,-0.873119 -0.549066,-1.289275 -2.641324,-4.151639 -5.27878,-8.306418 -7.965465,-12.428676 -0.107044,-0.101761 -0.193713,-0.08296 -0.308767,-0.01504 z"
         id="path4731"
         transform="matrix(0.46467448,0,0,0.46467448,4.9052812,5.2500001)" />
      <path
         style="fill:#000000;stroke-width:0.407592;stroke-linecap:butt;stroke-miterlimit:4;stroke-dasharray:none"
         d="m 37.086862,44.250728 c -7.338302,0.06649 -14.676255,0.529653 -21.937348,1.611056 -0.734197,0.193136 -1.637012,0.06126 -2.279432,0.456107 -0.07407,0.721287 0.741111,1.205155 1.109695,1.743326 1.017822,1.019872 1.94915,2.126297 2.876413,3.220133 0.585769,0.287052 1.277737,-0.186515 1.903654,-0.152164 7.43385,-0.930487 14.943987,-0.957664 22.429505,-0.911445 5.716356,0.129603 11.469987,0.213792 17.110223,1.151406 0.740344,0.08026 0.946395,-0.930837 1.449094,-1.29268 0.949413,-1.20747 2.27601,-2.148273 2.994986,-3.519355 0.04518,-0.636718 -0.896158,-0.399393 -1.28481,-0.56243 -8.065826,-1.194136 -16.218179,-1.77759 -24.37198,-1.743954 z"
         id="path4733"
         transform="matrix(0.46467448,0,0,0.46467448,4.9052812,5.2500001)" />
      <path
         style="fill:#000000;stroke-width:0.407592;stroke-linecap:butt;stroke-miterlimit:4;stroke-dasharray:none"
         d="m 36.936918,52.84689 c -5.993338,0.06509 -12.014631,0.14631 -17.961036,0.955649 -0.566927,0.204031 -0.0041,0.913922 0.03625,1.310289 0.330918,0.949065 -0.0614,1.96952 -0.0291,2.9106 0.538233,0.359837 1.289586,-0.0716 1.895023,-0.03823 8.796512,-1.031515 17.701319,-1.062784 26.546437,-0.641028 2.988875,0.137762 5.959765,0.498799 8.932458,0.812182 0.590452,-0.124009 0.08736,-0.861266 0.156851,-1.24962 -0.218109,-0.977161 0.104506,-1.91412 0.370175,-2.838095 C 56.667877,53.566188 55.874629,53.786689 55.430501,53.628954 49.292992,52.965211 43.105385,52.850803 36.936918,52.84689 Z"
         id="path4735"
         transform="matrix(0.46467448,0,0,0.46467448,4.9052812,5.2500001)" />
      <path
         style="fill:#000000;stroke-width:0.407592;stroke-linecap:butt;stroke-miterlimit:4;stroke-dasharray:none"
         d="m 36.486098,59.76826 c -6.089902,0.01291 -12.200262,0.313664 -18.218013,1.280447 -1.571174,0.295128 -2.299517,2.007285 -2.657076,3.390768 -0.03492,0.968095 -0.868042,1.595501 -1.118172,2.472605 0.142549,0.918376 1.125536,1.583092 2.028444,1.604505 6.64244,0.867284 13.344727,1.264951 20.043488,1.204419 6.022996,0.05424 12.051661,-0.07978 18.047094,-0.695461 1.677155,-0.209912 3.400262,-0.248709 5.037209,-0.674193 1.009427,-0.395419 0.704952,-1.711215 0.07349,-2.312549 -0.655832,-0.465127 -0.623593,-1.187022 -0.579801,-1.915985 0.08622,-1.060724 -0.168172,-2.221045 -1.111266,-2.844013 C 56.79832,60.760754 55.39084,60.821348 54.084016,60.580184 48.248092,59.869329 42.358199,59.779036 36.486098,59.76826 Z"
         id="path4737"
         transform="matrix(0.46467448,0,0,0.46467448,4.9052812,5.2500001)" />
    </g>
  </g>
</svg>
