<?xml version="1.0" encoding="UTF-8" standalone="no"?>
<svg
   xmlns:dc="http://purl.org/dc/elements/1.1/"
   xmlns:cc="http://creativecommons.org/ns#"
   xmlns:rdf="http://www.w3.org/1999/02/22-rdf-syntax-ns#"
   xmlns:svg="http://www.w3.org/2000/svg"
   xmlns="http://www.w3.org/2000/svg"
   xmlns:sodipodi="http://sodipodi.sourceforge.net/DTD/sodipodi-0.dtd"
   xmlns:inkscape="http://www.inkscape.org/namespaces/inkscape"
   width="20mm"
   height="20mm"
   viewBox="0 0 20 20"
   version="1.1"
   id="svg2601"
   inkscape:version="1.0.2 (e86c870879, 2021-01-15, custom)"
   sodipodi:docname="queen_base.svg">
  <defs
     id="defs2595" />
  <sodipodi:namedview
     id="base"
     pagecolor="#ffffff"
     bordercolor="#666666"
     borderopacity="1.0"
     inkscape:pageopacity="0.0"
     inkscape:pageshadow="2"
     inkscape:zoom="63.356767"
     inkscape:cx="12.145914"
     inkscape:cy="57.218348"
     inkscape:document-units="mm"
     inkscape:current-layer="g16"
     inkscape:document-rotation="0"
     showgrid="false"
     inkscape:snap-page="true"
     inkscape:snap-object-midpoints="true"
     inkscape:snap-others="true"
     inkscape:object-nodes="false"
     inkscape:snap-nodes="false"
     inkscape:snap-global="false"
     inkscape:snap-grids="false"
     inkscape:snap-to-guides="false"
     inkscape:snap-bbox="true"
     inkscape:snap-bbox-midpoints="true"
     inkscape:window-width="1920"
     inkscape:window-height="1009"
     inkscape:window-x="-8"
     inkscape:window-y="-8"
     inkscape:window-maximized="1" />
  <metadata
     id="metadata2598">
    <rdf:RDF>
      <cc:Work
         rdf:about="">
        <dc:format>image/svg+xml</dc:format>
        <dc:type
           rdf:resource="http://purl.org/dc/dcmitype/StillImage" />
        <dc:title />
      </cc:Work>
    </rdf:RDF>
  </metadata>
  <g
     inkscape:label="Calque 1"
     inkscape:groupmode="layer"
     id="layer1">
    <g
       style="fill:none;fill-opacity:1;fill-rule:evenodd;stroke:#000000;stroke-width:1.5;stroke-linecap:round;stroke-linejoin:round;stroke-miterlimit:4;stroke-dasharray:none;stroke-opacity:1"
       id="g16"
       transform="matrix(0.56939502,0,0,0.56939502,-2.7930427,-2.9893239)">
      <g
         style="fill:#ffffff;fill-opacity:1;fill-rule:evenodd;stroke:#000000;stroke-width:1.5;stroke-linecap:round;stroke-linejoin:round;stroke-miterlimit:4;stroke-dasharray:none;stroke-opacity:1"
         transform="matrix(0.91233766,0,0,0.91233766,1.9401838,2.4970204)"
         id="g36">
        <g
           id="path18"
           transform="translate(-1,-1)"
           style="opacity:1">
          <path
             style="color:#000000;font-style:normal;font-variant:normal;font-weight:normal;font-stretch:normal;font-size:medium;line-height:normal;font-family:sans-serif;font-variant-ligatures:normal;font-variant-position:normal;font-variant-caps:normal;font-variant-numeric:normal;font-variant-alternates:normal;font-variant-east-asian:normal;font-feature-settings:normal;font-variation-settings:normal;text-indent:0;text-align:start;text-decoration:none;text-decoration-line:none;text-decoration-style:solid;text-decoration-color:#000000;letter-spacing:normal;word-spacing:normal;text-transform:none;writing-mode:lr-tb;direction:ltr;text-orientation:mixed;dominant-baseline:auto;baseline-shift:baseline;text-anchor:start;white-space:normal;shape-padding:0;shape-margin:0;inline-size:0;clip-rule:nonzero;display:inline;overflow:visible;visibility:visible;isolation:auto;mix-blend-mode:normal;color-interpolation:sRGB;color-interpolation-filters:linearRGB;solid-color:#000000;solid-opacity:1;vector-effect:none;fill:#ffffff;fill-opacity:1;fill-rule:nonzero;stroke:none;stroke-width:1.5;stroke-linecap:butt;stroke-linejoin:miter;stroke-miterlimit:4;stroke-dasharray:none;stroke-dashoffset:0;stroke-opacity:1;color-rendering:auto;image-rendering:auto;shape-rendering:auto;text-rendering:auto;enable-background:accumulate;stop-color:#000000;stop-opacity:1"
             d="m 9,13 c 0,2.666666 -4,2.666666 -4,0 0,-2.666666 4,-2.666666 4,0 z"
             id="path4665" />
          <path
             style="color:#000000;font-style:normal;font-variant:normal;font-weight:normal;font-stretch:normal;font-size:medium;line-height:normal;font-family:sans-serif;font-variant-ligatures:normal;font-variant-position:normal;font-variant-caps:normal;font-variant-numeric:normal;font-variant-alternates:normal;font-variant-east-asian:normal;font-feature-settings:normal;font-variation-settings:normal;text-indent:0;text-align:start;text-decoration:none;text-decoration-line:none;text-decoration-style:solid;text-decoration-color:#000000;letter-spacing:normal;word-spacing:normal;text-transform:none;writing-mode:lr-tb;direction:ltr;text-orientation:mixed;dominant-baseline:auto;baseline-shift:baseline;text-anchor:start;white-space:normal;shape-padding:0;shape-margin:0;inline-size:0;clip-rule:nonzero;display:inline;overflow:visible;visibility:visible;isolation:auto;mix-blend-mode:normal;color-interpolation:sRGB;color-interpolation-filters:linearRGB;solid-color:#000000;solid-opacity:1;vector-effect:none;fill:#000000;fill-opacity:1;fill-rule:nonzero;stroke:none;stroke-linecap:butt;stroke-linejoin:miter;stroke-miterlimit:4;stroke-dasharray:none;stroke-dashoffset:0;stroke-opacity:1;color-rendering:auto;image-rendering:auto;shape-rendering:auto;text-rendering:auto;enable-background:accumulate;stop-color:#000000;stop-opacity:1"
             d="m 7,10.25 c -0.6666666,0 -1.3434104,0.218665 -1.8730469,0.689453 C 4.5973167,11.410241 4.25,12.145834 4.25,13 c 0,0.854166 0.3473167,1.589759 0.8769531,2.060547 C 5.6565896,15.531335 6.3333334,15.75 7,15.75 7.6666666,15.75 8.3434104,15.531335 8.8730469,15.060547 9.4026833,14.589759 9.75,13.854166 9.75,13 9.75,12.145834 9.4026833,11.410241 8.8730469,10.939453 8.3434104,10.468665 7.6666666,10.25 7,10.25 Z m 0,1.5 c 0.3333334,0 0.6565896,0.114668 0.8769531,0.310547 C 8.0973167,12.256426 8.25,12.520834 8.25,13 8.25,13.479166 8.0973167,13.743574 7.8769531,13.939453 7.6565896,14.135332 7.3333334,14.25 7,14.25 6.6666666,14.25 6.3434104,14.135332 6.1230469,13.939453 5.9026833,13.743574 5.75,13.479166 5.75,13 5.75,12.520834 5.9026833,12.256426 6.1230469,12.060547 6.3434104,11.864668 6.6666666,11.75 7,11.75 Z"
             id="path4667" />
        </g>
        <g
           id="path20"
           transform="translate(15.5,-5.5)"
           style="opacity:1">
          <path
             style="color:#000000;font-style:normal;font-variant:normal;font-weight:normal;font-stretch:normal;font-size:medium;line-height:normal;font-family:sans-serif;font-variant-ligatures:normal;font-variant-position:normal;font-variant-caps:normal;font-variant-numeric:normal;font-variant-alternates:normal;font-variant-east-asian:normal;font-feature-settings:normal;font-variation-settings:normal;text-indent:0;text-align:start;text-decoration:none;text-decoration-line:none;text-decoration-style:solid;text-decoration-color:#000000;letter-spacing:normal;word-spacing:normal;text-transform:none;writing-mode:lr-tb;direction:ltr;text-orientation:mixed;dominant-baseline:auto;baseline-shift:baseline;text-anchor:start;white-space:normal;shape-padding:0;shape-margin:0;inline-size:0;clip-rule:nonzero;display:inline;overflow:visible;visibility:visible;isolation:auto;mix-blend-mode:normal;color-interpolation:sRGB;color-interpolation-filters:linearRGB;solid-color:#000000;solid-opacity:1;vector-effect:none;fill:#ffffff;fill-opacity:1;fill-rule:nonzero;stroke:none;stroke-width:1.5;stroke-linecap:butt;stroke-linejoin:miter;stroke-miterlimit:4;stroke-dasharray:none;stroke-dashoffset:0;stroke-opacity:1;color-rendering:auto;image-rendering:auto;shape-rendering:auto;text-rendering:auto;enable-background:accumulate;stop-color:#000000;stop-opacity:1"
             d="m 9,13 c 0,2.666666 -4,2.666666 -4,0 0,-2.666666 4,-2.666666 4,0 z"
             id="path4671" />
          <path
             style="color:#000000;font-style:normal;font-variant:normal;font-weight:normal;font-stretch:normal;font-size:medium;line-height:normal;font-family:sans-serif;font-variant-ligatures:normal;font-variant-position:normal;font-variant-caps:normal;font-variant-numeric:normal;font-variant-alternates:normal;font-variant-east-asian:normal;font-feature-settings:normal;font-variation-settings:normal;text-indent:0;text-align:start;text-decoration:none;text-decoration-line:none;text-decoration-style:solid;text-decoration-color:#000000;letter-spacing:normal;word-spacing:normal;text-transform:none;writing-mode:lr-tb;direction:ltr;text-orientation:mixed;dominant-baseline:auto;baseline-shift:baseline;text-anchor:start;white-space:normal;shape-padding:0;shape-margin:0;inline-size:0;clip-rule:nonzero;display:inline;overflow:visible;visibility:visible;isolation:auto;mix-blend-mode:normal;color-interpolation:sRGB;color-interpolation-filters:linearRGB;solid-color:#000000;solid-opacity:1;vector-effect:none;fill:#000000;fill-opacity:1;fill-rule:nonzero;stroke:none;stroke-linecap:butt;stroke-linejoin:miter;stroke-miterlimit:4;stroke-dasharray:none;stroke-dashoffset:0;stroke-opacity:1;color-rendering:auto;image-rendering:auto;shape-rendering:auto;text-rendering:auto;enable-background:accumulate;stop-color:#000000;stop-opacity:1"
             d="m 7,10.25 c -0.6666666,0 -1.3434104,0.218665 -1.8730469,0.689453 C 4.5973167,11.410241 4.25,12.145834 4.25,13 c 0,0.854166 0.3473167,1.589759 0.8769531,2.060547 C 5.6565896,15.531335 6.3333334,15.75 7,15.75 7.6666666,15.75 8.3434104,15.531335 8.8730469,15.060547 9.4026833,14.589759 9.75,13.854166 9.75,13 9.75,12.145834 9.4026833,11.410241 8.8730469,10.939453 8.3434104,10.468665 7.6666666,10.25 7,10.25 Z m 0,1.5 c 0.3333334,0 0.6565896,0.114668 0.8769531,0.310547 C 8.0973167,12.256426 8.25,12.520834 8.25,13 8.25,13.479166 8.0973167,13.743574 7.8769531,13.939453 7.6565896,14.135332 7.3333334,14.25 7,14.25 6.6666666,14.25 6.3434104,14.135332 6.1230469,13.939453 5.9026833,13.743574 5.75,13.479166 5.75,13 5.75,12.520834 5.9026833,12.256426 6.1230469,12.060547 6.3434104,11.864668 6.6666666,11.75 7,11.75 Z"
             id="path4673" />
        </g>
        <g
           id="path22"
           transform="translate(32,-1)"
           style="opacity:1">
          <path
             style="color:#000000;font-style:normal;font-variant:normal;font-weight:normal;font-stretch:normal;font-size:medium;line-height:normal;font-family:sans-serif;font-variant-ligatures:normal;font-variant-position:normal;font-variant-caps:normal;font-variant-numeric:normal;font-variant-alternates:normal;font-variant-east-asian:normal;font-feature-settings:normal;font-variation-settings:normal;text-indent:0;text-align:start;text-decoration:none;text-decoration-line:none;text-decoration-style:solid;text-decoration-color:#000000;letter-spacing:normal;word-spacing:normal;text-transform:none;writing-mode:lr-tb;direction:ltr;text-orientation:mixed;dominant-baseline:auto;baseline-shift:baseline;text-anchor:start;white-space:normal;shape-padding:0;shape-margin:0;inline-size:0;clip-rule:nonzero;display:inline;overflow:visible;visibility:visible;isolation:auto;mix-blend-mode:normal;color-interpolation:sRGB;color-interpolation-filters:linearRGB;solid-color:#000000;solid-opacity:1;vector-effect:none;fill:#ffffff;fill-opacity:1;fill-rule:nonzero;stroke:none;stroke-width:1.5;stroke-linecap:butt;stroke-linejoin:miter;stroke-miterlimit:4;stroke-dasharray:none;stroke-dashoffset:0;stroke-opacity:1;color-rendering:auto;image-rendering:auto;shape-rendering:auto;text-rendering:auto;enable-background:accumulate;stop-color:#000000;stop-opacity:1"
             d="m 9,13 c 0,2.666666 -4,2.666666 -4,0 0,-2.666666 4,-2.666666 4,0 z"
             id="path4677" />
          <path
             style="color:#000000;font-style:normal;font-variant:normal;font-weight:normal;font-stretch:normal;font-size:medium;line-height:normal;font-family:sans-serif;font-variant-ligatures:normal;font-variant-position:normal;font-variant-caps:normal;font-variant-numeric:normal;font-variant-alternates:normal;font-variant-east-asian:normal;font-feature-settings:normal;font-variation-settings:normal;text-indent:0;text-align:start;text-decoration:none;text-decoration-line:none;text-decoration-style:solid;text-decoration-color:#000000;letter-spacing:normal;word-spacing:normal;text-transform:none;writing-mode:lr-tb;direction:ltr;text-orientation:mixed;dominant-baseline:auto;baseline-shift:baseline;text-anchor:start;white-space:normal;shape-padding:0;shape-margin:0;inline-size:0;clip-rule:nonzero;display:inline;overflow:visible;visibility:visible;isolation:auto;mix-blend-mode:normal;color-interpolation:sRGB;color-interpolation-filters:linearRGB;solid-color:#000000;solid-opacity:1;vector-effect:none;fill:#000000;fill-opacity:1;fill-rule:nonzero;stroke:none;stroke-linecap:butt;stroke-linejoin:miter;stroke-miterlimit:4;stroke-dasharray:none;stroke-dashoffset:0;stroke-opacity:1;color-rendering:auto;image-rendering:auto;shape-rendering:auto;text-rendering:auto;enable-background:accumulate;stop-color:#000000;stop-opacity:1"
             d="m 7,10.25 c -0.6666666,0 -1.3434104,0.218665 -1.8730469,0.689453 C 4.5973167,11.410241 4.25,12.145834 4.25,13 c 0,0.854166 0.3473167,1.589759 0.8769531,2.060547 C 5.6565896,15.531335 6.3333334,15.75 7,15.75 7.6666666,15.75 8.3434104,15.531335 8.8730469,15.060547 9.4026833,14.589759 9.75,13.854166 9.75,13 9.75,12.145834 9.4026833,11.410241 8.8730469,10.939453 8.3434104,10.468665 7.6666666,10.25 7,10.25 Z m 0,1.5 c 0.3333334,0 0.6565896,0.114668 0.8769531,0.310547 C 8.0973167,12.256426 8.25,12.520834 8.25,13 8.25,13.479166 8.0973167,13.743574 7.8769531,13.939453 7.6565896,14.135332 7.3333334,14.25 7,14.25 6.6666666,14.25 6.3434104,14.135332 6.1230469,13.939453 5.9026833,13.743574 5.75,13.479166 5.75,13 5.75,12.520834 5.9026833,12.256426 6.1230469,12.060547 6.3434104,11.864668 6.6666666,11.75 7,11.75 Z"
             id="path4679" />
        </g>
        <g
           id="path24"
           transform="translate(7,-4.5)"
           style="opacity:1">
          <path
             style="color:#000000;font-style:normal;font-variant:normal;font-weight:normal;font-stretch:normal;font-size:medium;line-height:normal;font-family:sans-serif;font-variant-ligatures:normal;font-variant-position:normal;font-variant-caps:normal;font-variant-numeric:normal;font-variant-alternates:normal;font-variant-east-asian:normal;font-feature-settings:normal;font-variation-settings:normal;text-indent:0;text-align:start;text-decoration:none;text-decoration-line:none;text-decoration-style:solid;text-decoration-color:#000000;letter-spacing:normal;word-spacing:normal;text-transform:none;writing-mode:lr-tb;direction:ltr;text-orientation:mixed;dominant-baseline:auto;baseline-shift:baseline;text-anchor:start;white-space:normal;shape-padding:0;shape-margin:0;inline-size:0;clip-rule:nonzero;display:inline;overflow:visible;visibility:visible;isolation:auto;mix-blend-mode:normal;color-interpolation:sRGB;color-interpolation-filters:linearRGB;solid-color:#000000;solid-opacity:1;vector-effect:none;fill:#ffffff;fill-opacity:1;fill-rule:nonzero;stroke:none;stroke-width:1.5;stroke-linecap:butt;stroke-linejoin:miter;stroke-miterlimit:4;stroke-dasharray:none;stroke-dashoffset:0;stroke-opacity:1;color-rendering:auto;image-rendering:auto;shape-rendering:auto;text-rendering:auto;enable-background:accumulate;stop-color:#000000;stop-opacity:1"
             d="m 9,13 c 0,2.666666 -4,2.666666 -4,0 0,-2.666666 4,-2.666666 4,0 z"
             id="path4683" />
          <path
             style="color:#000000;font-style:normal;font-variant:normal;font-weight:normal;font-stretch:normal;font-size:medium;line-height:normal;font-family:sans-serif;font-variant-ligatures:normal;font-variant-position:normal;font-variant-caps:normal;font-variant-numeric:normal;font-variant-alternates:normal;font-variant-east-asian:normal;font-feature-settings:normal;font-variation-settings:normal;text-indent:0;text-align:start;text-decoration:none;text-decoration-line:none;text-decoration-style:solid;text-decoration-color:#000000;letter-spacing:normal;word-spacing:normal;text-transform:none;writing-mode:lr-tb;direction:ltr;text-orientation:mixed;dominant-baseline:auto;baseline-shift:baseline;text-anchor:start;white-space:normal;shape-padding:0;shape-margin:0;inline-size:0;clip-rule:nonzero;display:inline;overflow:visible;visibility:visible;isolation:auto;mix-blend-mode:normal;color-interpolation:sRGB;color-interpolation-filters:linearRGB;solid-color:#000000;solid-opacity:1;vector-effect:none;fill:#000000;fill-opacity:1;fill-rule:nonzero;stroke:none;stroke-linecap:butt;stroke-linejoin:miter;stroke-miterlimit:4;stroke-dasharray:none;stroke-dashoffset:0;stroke-opacity:1;color-rendering:auto;image-rendering:auto;shape-rendering:auto;text-rendering:auto;enable-background:accumulate;stop-color:#000000;stop-opacity:1"
             d="m 7,10.25 c -0.6666666,0 -1.3434104,0.218665 -1.8730469,0.689453 C 4.5973167,11.410241 4.25,12.145834 4.25,13 c 0,0.854166 0.3473167,1.589759 0.8769531,2.060547 C 5.6565896,15.531335 6.3333334,15.75 7,15.75 7.6666666,15.75 8.3434104,15.531335 8.8730469,15.060547 9.4026833,14.589759 9.75,13.854166 9.75,13 9.75,12.145834 9.4026833,11.410241 8.8730469,10.939453 8.3434104,10.468665 7.6666666,10.25 7,10.25 Z m 0,1.5 c 0.3333334,0 0.6565896,0.114668 0.8769531,0.310547 C 8.0973167,12.256426 8.25,12.520834 8.25,13 8.25,13.479166 8.0973167,13.743574 7.8769531,13.939453 7.6565896,14.135332 7.3333334,14.25 7,14.25 6.6666666,14.25 6.3434104,14.135332 6.1230469,13.939453 5.9026833,13.743574 5.75,13.479166 5.75,13 5.75,12.520834 5.9026833,12.256426 6.1230469,12.060547 6.3434104,11.864668 6.6666666,11.75 7,11.75 Z"
             id="path4685" />
        </g>
        <g
           id="path26"
           transform="translate(24,-4)"
           style="opacity:1">
          <path
             style="color:#000000;font-style:normal;font-variant:normal;font-weight:normal;font-stretch:normal;font-size:medium;line-height:normal;font-family:sans-serif;font-variant-ligatures:normal;font-variant-position:normal;font-variant-caps:normal;font-variant-numeric:normal;font-variant-alternates:normal;font-variant-east-asian:normal;font-feature-settings:normal;font-variation-settings:normal;text-indent:0;text-align:start;text-decoration:none;text-decoration-line:none;text-decoration-style:solid;text-decoration-color:#000000;letter-spacing:normal;word-spacing:normal;text-transform:none;writing-mode:lr-tb;direction:ltr;text-orientation:mixed;dominant-baseline:auto;baseline-shift:baseline;text-anchor:start;white-space:normal;shape-padding:0;shape-margin:0;inline-size:0;clip-rule:nonzero;display:inline;overflow:visible;visibility:visible;isolation:auto;mix-blend-mode:normal;color-interpolation:sRGB;color-interpolation-filters:linearRGB;solid-color:#000000;solid-opacity:1;vector-effect:none;fill:#ffffff;fill-opacity:1;fill-rule:nonzero;stroke:none;stroke-width:1.5;stroke-linecap:butt;stroke-linejoin:miter;stroke-miterlimit:4;stroke-dasharray:none;stroke-dashoffset:0;stroke-opacity:1;color-rendering:auto;image-rendering:auto;shape-rendering:auto;text-rendering:auto;enable-background:accumulate;stop-color:#000000;stop-opacity:1"
             d="m 9,13 c 0,2.666666 -4,2.666666 -4,0 0,-2.666666 4,-2.666666 4,0 z"
             id="path4689" />
          <path
             style="color:#000000;font-style:normal;font-variant:normal;font-weight:normal;font-stretch:normal;font-size:medium;line-height:normal;font-family:sans-serif;font-variant-ligatures:normal;font-variant-position:normal;font-variant-caps:normal;font-variant-numeric:normal;font-variant-alternates:normal;font-variant-east-asian:normal;font-feature-settings:normal;font-variation-settings:normal;text-indent:0;text-align:start;text-decoration:none;text-decoration-line:none;text-decoration-style:solid;text-decoration-color:#000000;letter-spacing:normal;word-spacing:normal;text-transform:none;writing-mode:lr-tb;direction:ltr;text-orientation:mixed;dominant-baseline:auto;baseline-shift:baseline;text-anchor:start;white-space:normal;shape-padding:0;shape-margin:0;inline-size:0;clip-rule:nonzero;display:inline;overflow:visible;visibility:visible;isolation:auto;mix-blend-mode:normal;color-interpolation:sRGB;color-interpolation-filters:linearRGB;solid-color:#000000;solid-opacity:1;vector-effect:none;fill:#000000;fill-opacity:1;fill-rule:nonzero;stroke:none;stroke-linecap:butt;stroke-linejoin:miter;stroke-miterlimit:4;stroke-dasharray:none;stroke-dashoffset:0;stroke-opacity:1;color-rendering:auto;image-rendering:auto;shape-rendering:auto;text-rendering:auto;enable-background:accumulate;stop-color:#000000;stop-opacity:1"
             d="m 7,10.25 c -0.6666666,0 -1.3434104,0.218665 -1.8730469,0.689453 C 4.5973167,11.410241 4.25,12.145834 4.25,13 c 0,0.854166 0.3473167,1.589759 0.8769531,2.060547 C 5.6565896,15.531335 6.3333334,15.75 7,15.75 7.6666666,15.75 8.3434104,15.531335 8.8730469,15.060547 9.4026833,14.589759 9.75,13.854166 9.75,13 9.75,12.145834 9.4026833,11.410241 8.8730469,10.939453 8.3434104,10.468665 7.6666666,10.25 7,10.25 Z m 0,1.5 c 0.3333334,0 0.6565896,0.114668 0.8769531,0.310547 C 8.0973167,12.256426 8.25,12.520834 8.25,13 8.25,13.479166 8.0973167,13.743574 7.8769531,13.939453 7.6565896,14.135332 7.3333334,14.25 7,14.25 6.6666666,14.25 6.3434104,14.135332 6.1230469,13.939453 5.9026833,13.743574 5.75,13.479166 5.75,13 5.75,12.520834 5.9026833,12.256426 6.1230469,12.060547 6.3434104,11.864668 6.6666666,11.75 7,11.75 Z"
             id="path4691" />
        </g>
        <g
           id="path28"
           style="opacity:1">
          <path
             style="color:#000000;font-style:normal;font-variant:normal;font-weight:normal;font-stretch:normal;font-size:medium;line-height:normal;font-family:sans-serif;font-variant-ligatures:normal;font-variant-position:normal;font-variant-caps:normal;font-variant-numeric:normal;font-variant-alternates:normal;font-variant-east-asian:normal;font-feature-settings:normal;font-variation-settings:normal;text-indent:0;text-align:start;text-decoration:none;text-decoration-line:none;text-decoration-style:solid;text-decoration-color:#000000;letter-spacing:normal;word-spacing:normal;text-transform:none;writing-mode:lr-tb;direction:ltr;text-orientation:mixed;dominant-baseline:auto;baseline-shift:baseline;text-anchor:start;white-space:normal;shape-padding:0;shape-margin:0;inline-size:0;clip-rule:nonzero;display:inline;overflow:visible;visibility:visible;isolation:auto;mix-blend-mode:normal;color-interpolation:sRGB;color-interpolation-filters:linearRGB;solid-color:#000000;solid-opacity:1;vector-effect:none;fill:#ffffff;fill-opacity:1;fill-rule:nonzero;stroke:none;stroke-width:1.5;stroke-linecap:butt;stroke-linejoin:miter;stroke-miterlimit:4;stroke-dasharray:none;stroke-dashoffset:0;stroke-opacity:1;color-rendering:auto;image-rendering:auto;shape-rendering:auto;text-rendering:auto;enable-background:accumulate;stop-color:#000000;stop-opacity:1"
             d="m 9,26 c 8.5,-1.5 21,-1.5 27,0 L 38,14 31,25 V 11 l -5.5,13.5 -3,-15 -3,15 -5.5,-14 V 25 L 7,14 Z"
             id="path4695" />
          <path
             style="color:#000000;font-style:normal;font-variant:normal;font-weight:normal;font-stretch:normal;font-size:medium;line-height:normal;font-family:sans-serif;font-variant-ligatures:normal;font-variant-position:normal;font-variant-caps:normal;font-variant-numeric:normal;font-variant-alternates:normal;font-variant-east-asian:normal;font-feature-settings:normal;font-variation-settings:normal;text-indent:0;text-align:start;text-decoration:none;text-decoration-line:none;text-decoration-style:solid;text-decoration-color:#000000;letter-spacing:normal;word-spacing:normal;text-transform:none;writing-mode:lr-tb;direction:ltr;text-orientation:mixed;dominant-baseline:auto;baseline-shift:baseline;text-anchor:start;white-space:normal;shape-padding:0;shape-margin:0;inline-size:0;clip-rule:nonzero;display:inline;overflow:visible;visibility:visible;isolation:auto;mix-blend-mode:normal;color-interpolation:sRGB;color-interpolation-filters:linearRGB;solid-color:#000000;solid-opacity:1;vector-effect:none;fill:#000000;fill-opacity:1;fill-rule:nonzero;stroke:none;stroke-linecap:butt;stroke-linejoin:miter;stroke-miterlimit:4;stroke-dasharray:none;stroke-dashoffset:0;stroke-opacity:1;color-rendering:auto;image-rendering:auto;shape-rendering:auto;text-rendering:auto;enable-background:accumulate;stop-color:#000000;stop-opacity:1"
             d="m 22.509766,8.75 a 0.750075,0.750075 0 0 0 -0.746094,0.6035156 l -2.5,12.4980464 -4.566406,-11.625 A 0.750075,0.750075 0 0 0 13.25,10.5 V 22.423828 L 7.6328125,13.597656 a 0.750075,0.750075 0 0 0 -1.3730469,0.525391 l 2,12 a 0.750075,0.750075 0 0 0 0.8710938,0.615234 c 8.3760756,-1.478131 20.9252796,-1.45032 26.6874996,-0.0098 a 0.750075,0.750075 0 0 0 0.921875,-0.605469 l 2,-12 A 0.750075,0.750075 0 0 0 37.367188,13.597656 L 31.75,22.423828 V 11 A 0.750075,0.750075 0 0 0 30.304688,10.716797 L 25.746094,21.904297 23.236328,9.3535156 A 0.750075,0.750075 0 0 0 22.509766,8.75 Z M 22.5,13.328125 24.666016,24.162109 c -1.443459,-0.0194 -2.863457,0.02125 -4.345704,0.06836 z m -7.75,1.128906 3.865234,9.839844 c -1.320091,0.06474 -2.581898,0.129056 -3.865234,0.246094 z m 15.5,0.373047 v 9.558594 c -1.18813,-0.100801 -2.534414,-0.112448 -3.830078,-0.15625 z m -21.9042969,2.681641 4.6132809,7.25 c -1.130067,0.128725 -2.289257,0.237161 -3.3359371,0.408203 z m 28.3085939,0 -1.273438,7.636719 c -0.957322,-0.20803 -2.098116,-0.359008 -3.267578,-0.501954 z"
             id="path4697" />
        </g>
        <g
           id="path30"
           style="opacity:1">
          <path
             style="color:#000000;font-style:normal;font-variant:normal;font-weight:normal;font-stretch:normal;font-size:medium;line-height:normal;font-family:sans-serif;font-variant-ligatures:normal;font-variant-position:normal;font-variant-caps:normal;font-variant-numeric:normal;font-variant-alternates:normal;font-variant-east-asian:normal;font-feature-settings:normal;font-variation-settings:normal;text-indent:0;text-align:start;text-decoration:none;text-decoration-line:none;text-decoration-style:solid;text-decoration-color:#000000;letter-spacing:normal;word-spacing:normal;text-transform:none;writing-mode:lr-tb;direction:ltr;text-orientation:mixed;dominant-baseline:auto;baseline-shift:baseline;text-anchor:start;white-space:normal;shape-padding:0;shape-margin:0;inline-size:0;clip-rule:nonzero;display:inline;overflow:visible;visibility:visible;isolation:auto;mix-blend-mode:normal;color-interpolation:sRGB;color-interpolation-filters:linearRGB;solid-color:#000000;solid-opacity:1;vector-effect:none;fill:#ffffff;fill-opacity:1;fill-rule:nonzero;stroke:none;stroke-width:1.5;stroke-linecap:butt;stroke-linejoin:miter;stroke-miterlimit:4;stroke-dasharray:none;stroke-dashoffset:0;stroke-opacity:1;color-rendering:auto;image-rendering:auto;shape-rendering:auto;text-rendering:auto;enable-background:accumulate;stop-color:#000000;stop-opacity:1"
             d="m 9,26 c 0,2 1.5,2 2.5,4 1,1.5 1,1 0.5,3.5 -1.5,1 -1.5,2.5 -1.5,2.5 -1.5,1.5 0.5,2.5 0.5,2.5 6.5,1 16.5,1 23,0 0,0 1.5,-1 0,-2.5 0,0 0.5,-1.5 -1,-2.5 -0.5,-2.5 -0.5,-2 0.5,-3.5 1,-2 2.5,-2 2.5,-4 -8.5,-1.5 -18.5,-1.5 -27,0 z"
             id="path4701" />
          <path
             style="color:#000000;font-style:normal;font-variant:normal;font-weight:normal;font-stretch:normal;font-size:medium;line-height:normal;font-family:sans-serif;font-variant-ligatures:normal;font-variant-position:normal;font-variant-caps:normal;font-variant-numeric:normal;font-variant-alternates:normal;font-variant-east-asian:normal;font-feature-settings:normal;font-variation-settings:normal;text-indent:0;text-align:start;text-decoration:none;text-decoration-line:none;text-decoration-style:solid;text-decoration-color:#000000;letter-spacing:normal;word-spacing:normal;text-transform:none;writing-mode:lr-tb;direction:ltr;text-orientation:mixed;dominant-baseline:auto;baseline-shift:baseline;text-anchor:start;white-space:normal;shape-padding:0;shape-margin:0;inline-size:0;clip-rule:nonzero;display:inline;overflow:visible;visibility:visible;isolation:auto;mix-blend-mode:normal;color-interpolation:sRGB;color-interpolation-filters:linearRGB;solid-color:#000000;solid-opacity:1;vector-effect:none;fill:#000000;fill-opacity:1;fill-rule:nonzero;stroke:none;stroke-linecap:butt;stroke-linejoin:miter;stroke-miterlimit:4;stroke-dasharray:none;stroke-dashoffset:0;stroke-opacity:1;color-rendering:auto;image-rendering:auto;shape-rendering:auto;text-rendering:auto;enable-background:accumulate;stop-color:#000000;stop-opacity:1"
             d="m 22.5,24.123047 c -4.665385,0 -9.33129,0.379924 -13.6308594,1.138672 A 0.750075,0.750075 0 0 0 8.25,26 c 0,1.1875 0.5495558,1.987056 1.09375,2.53125 0.5441942,0.544194 1.05341,0.938852 1.486328,1.804688 a 0.750075,0.750075 0 0 0 0.04492,0.08008 c 0.260667,0.391001 0.458231,0.653833 0.568359,0.822265 0.110129,0.168432 0.119873,0.205562 0.128907,0.259766 0.01717,0.10304 -0.07007,0.638385 -0.292969,1.763672 -1.205473,1.074764 -1.4723713,2.304085 -1.4882814,2.552734 -0.2860858,0.373284 -0.5632243,0.755511 -0.59375,1.152344 -0.039679,0.515828 0.1539183,0.963532 0.3808594,1.28125 0.453882,0.635435 1.085937,0.921875 1.085937,0.921875 a 0.750075,0.750075 0 0 0 0.222657,0.07227 c 6.614262,1.017578 16.6123,1.017578 23.226562,0 A 0.750075,0.750075 0 0 0 34.416016,39.125 c 0,0 0.546561,-0.342368 0.835937,-1.017578 0.251369,-0.586526 0.09657,-1.460016 -0.509765,-2.269531 0.04683,-0.208053 0.120341,-0.359537 0.06445,-0.806641 -0.07149,-0.571923 -0.436429,-1.268648 -1.09961,-1.851562 -0.198795,-1.013287 -0.295671,-1.583394 -0.279297,-1.681641 0.009,-0.0542 0.01878,-0.09133 0.128907,-0.259766 0.110128,-0.168432 0.307692,-0.431264 0.568359,-0.822265 a 0.750075,0.750075 0 0 0 0.04492,-0.08008 C 34.60284,29.470102 35.112056,29.075444 35.65625,28.53125 36.200444,27.987056 36.75,27.1875 36.75,26 A 0.750075,0.750075 0 0 0 36.130859,25.261719 C 31.83129,24.502971 27.165385,24.123047 22.5,24.123047 Z m 0,1.503906 c 4.269727,0 8.511312,0.353169 12.470703,0.996094 -0.103368,0.258806 -0.114607,0.583357 -0.376953,0.845703 -0.455806,0.455806 -1.19659,1.061148 -1.763672,2.195312 l 0.04492,-0.08008 c -0.239333,0.358999 -0.416769,0.596167 -0.572266,0.833985 -0.155496,0.237818 -0.302002,0.513188 -0.355468,0.833984 -0.106933,0.641593 0.06829,1.15396 0.316406,2.394531 A 0.750075,0.750075 0 0 0 32.583984,34.125 c 0.57399,0.38266 0.692866,0.761674 0.734375,1.09375 0.04151,0.332076 -0.0293,0.544922 -0.0293,0.544922 a 0.750075,0.750075 0 0 0 0.179688,0.767578 c 0.602686,0.602686 0.489921,0.786538 0.404297,0.986328 -0.06079,0.141855 -0.140455,0.195458 -0.205078,0.253906 -6.35044,0.948016 -16.077404,0.950075 -22.40625,-0.0039 -0.07788,-0.04757 -0.317304,-0.184068 -0.464844,-0.390625 -0.08556,-0.119782 -0.110712,-0.203328 -0.103516,-0.296875 0.0072,-0.09355 0.05128,-0.262216 0.337891,-0.548828 A 0.750075,0.750075 0 0 0 11.25,36 c 0,0 -0.04597,-1.067012 1.166016,-1.875 a 0.750075,0.750075 0 0 0 0.320312,-0.478516 c 0.248114,-1.240571 0.423339,-1.752938 0.316406,-2.394531 -0.05347,-0.320796 -0.199972,-0.596166 -0.355468,-0.833984 C 12.541769,30.180151 12.364333,29.942983 12.125,29.583984 l 0.04492,0.08008 C 11.60284,28.529898 10.862056,27.924556 10.40625,27.46875 10.143904,27.206404 10.132665,26.881853 10.029297,26.623047 13.988688,25.980122 18.230273,25.626953 22.5,25.626953 Z"
             id="path4703" />
        </g>
        <path
           style="color:#000000;font-style:normal;font-variant:normal;font-weight:normal;font-stretch:normal;font-size:medium;line-height:normal;font-family:sans-serif;font-variant-ligatures:normal;font-variant-position:normal;font-variant-caps:normal;font-variant-numeric:normal;font-variant-alternates:normal;font-variant-east-asian:normal;font-feature-settings:normal;font-variation-settings:normal;text-indent:0;text-align:start;text-decoration:none;text-decoration-line:none;text-decoration-style:solid;text-decoration-color:#000000;letter-spacing:normal;word-spacing:normal;text-transform:none;writing-mode:lr-tb;direction:ltr;text-orientation:mixed;dominant-baseline:auto;baseline-shift:baseline;text-anchor:start;white-space:normal;shape-padding:0;shape-margin:0;inline-size:0;clip-rule:nonzero;display:inline;overflow:visible;visibility:visible;opacity:1;isolation:auto;mix-blend-mode:normal;color-interpolation:sRGB;color-interpolation-filters:linearRGB;solid-color:#000000;solid-opacity:1;vector-effect:none;fill:#000000;fill-opacity:1;fill-rule:nonzero;stroke:none;stroke-linecap:butt;stroke-linejoin:miter;stroke-miterlimit:4;stroke-dasharray:none;stroke-dashoffset:0;stroke-opacity:1;color-rendering:auto;image-rendering:auto;shape-rendering:auto;text-rendering:auto;enable-background:accumulate;stop-color:#000000;stop-opacity:1"
           d="m 22.5,28.5 c -2.326014,0 -4.652074,0.06306 -6.626953,0.189453 -1.974879,0.126392 -3.56706,0.300968 -4.578125,0.589844 -0.397779,0.113583 -0.210453,0.423289 -0.0976,0.821274 0.113583,0.397779 0.109769,0.732986 0.507755,0.620132 0.738935,-0.211124 2.334254,-0.411548 4.265625,-0.535156 C 17.902074,30.061939 20.201014,30 22.5,30 c 2.298986,0 4.597926,0.06194 6.529297,0.185547 1.931371,0.123608 3.52669,0.324032 4.265625,0.535156 0.397986,0.112854 0.289665,-0.286665 0.403248,-0.684443 0.112854,-0.397986 0.404687,-0.64338 0.0069,-0.756963 C 32.694013,28.990421 31.101832,28.815845 29.126953,28.689453 27.152074,28.563061 24.826014,28.5 22.5,28.5 Z"
           id="path32"
           sodipodi:nodetypes="sscccssscccss" />
        <path
           style="color:#000000;font-style:normal;font-variant:normal;font-weight:normal;font-stretch:normal;font-size:medium;line-height:normal;font-family:sans-serif;font-variant-ligatures:normal;font-variant-position:normal;font-variant-caps:normal;font-variant-numeric:normal;font-variant-alternates:normal;font-variant-east-asian:normal;font-feature-settings:normal;font-variation-settings:normal;text-indent:0;text-align:start;text-decoration:none;text-decoration-line:none;text-decoration-style:solid;text-decoration-color:#000000;letter-spacing:normal;word-spacing:normal;text-transform:none;writing-mode:lr-tb;direction:ltr;text-orientation:mixed;dominant-baseline:auto;baseline-shift:baseline;text-anchor:start;white-space:normal;shape-padding:0;shape-margin:0;inline-size:0;clip-rule:nonzero;display:inline;overflow:visible;visibility:visible;opacity:1;isolation:auto;mix-blend-mode:normal;color-interpolation:sRGB;color-interpolation-filters:linearRGB;solid-color:#000000;solid-opacity:1;vector-effect:none;fill:#000000;fill-opacity:1;fill-rule:nonzero;stroke:none;stroke-linecap:butt;stroke-linejoin:miter;stroke-miterlimit:4;stroke-dasharray:none;stroke-dashoffset:0;stroke-opacity:1;color-rendering:auto;image-rendering:auto;shape-rendering:auto;text-rendering:auto;enable-background:accumulate;stop-color:#000000;stop-opacity:1"
           d="m 22.5,31.996094 c -3.781658,0 -7.563063,0.253674 -10.623047,0.763672 -0.408944,0.06776 -0.307541,0.446369 -0.239356,0.855242 0.06776,0.408944 0.07658,0.693411 0.48545,0.625226 5.880033,-0.980005 14.873873,-0.980005 20.753906,0 0.408873,0.06818 0.35338,-0.264516 0.421138,-0.67346 0.06818,-0.408873 0.2339,-0.73925 -0.175044,-0.807008 C 30.063063,32.249768 26.281658,31.996094 22.5,31.996094 Z"
           id="path34"
           sodipodi:nodetypes="sccccccs" />
      </g>
    </g>
  </g>
</svg>
