<?xml version="1.0" encoding="UTF-8" standalone="no"?>
<svg
   xmlns:dc="http://purl.org/dc/elements/1.1/"
   xmlns:cc="http://creativecommons.org/ns#"
   xmlns:rdf="http://www.w3.org/1999/02/22-rdf-syntax-ns#"
   xmlns:svg="http://www.w3.org/2000/svg"
   xmlns="http://www.w3.org/2000/svg"
   xmlns:sodipodi="http://sodipodi.sourceforge.net/DTD/sodipodi-0.dtd"
   xmlns:inkscape="http://www.inkscape.org/namespaces/inkscape"
   width="20mm"
   height="20mm"
   viewBox="0 0 20 20"
   version="1.1"
   id="svg2601"
   inkscape:version="1.0.2 (e86c870879, 2021-01-15, custom)"
   sodipodi:docname="rook_accent_inverse.svg">
  <defs
     id="defs2595" />
  <sodipodi:namedview
     id="base"
     pagecolor="#ffffff"
     bordercolor="#666666"
     borderopacity="1.0"
     inkscape:pageopacity="0.0"
     inkscape:pageshadow="2"
     inkscape:zoom="11.2"
     inkscape:cx="29.797936"
     inkscape:cy="45.4641"
     inkscape:document-units="mm"
     inkscape:current-layer="g16"
     inkscape:document-rotation="0"
     showgrid="false"
     inkscape:snap-page="true"
     inkscape:snap-object-midpoints="true"
     inkscape:snap-others="true"
     inkscape:object-nodes="false"
     inkscape:snap-nodes="false"
     inkscape:snap-global="false"
     inkscape:snap-grids="false"
     inkscape:snap-to-guides="false"
     inkscape:snap-bbox="true"
     inkscape:snap-bbox-midpoints="true"
     inkscape:window-width="1920"
     inkscape:window-height="1009"
     inkscape:window-x="-8"
     inkscape:window-y="-8"
     inkscape:window-maximized="1" />
  <metadata
     id="metadata2598">
    <rdf:RDF>
      <cc:Work
         rdf:about="">
        <dc:format>image/svg+xml</dc:format>
        <dc:type
           rdf:resource="http://purl.org/dc/dcmitype/StillImage" />
        <dc:title></dc:title>
      </cc:Work>
    </rdf:RDF>
  </metadata>
  <g
     inkscape:label="Calque 1"
     inkscape:groupmode="layer"
     id="layer1">
    <g
       style="fill:none;fill-opacity:1;fill-rule:evenodd;stroke:#000000;stroke-width:1.5;stroke-linecap:round;stroke-linejoin:round;stroke-miterlimit:4;stroke-dasharray:none;stroke-opacity:1"
       id="g16"
       transform="matrix(0.56939502,0,0,0.56939502,-2.7930427,-2.9893239)">
      <path
         style="fill:#000000;stroke-width:0.288211"
         d="m 12.060073,3.499814 c -0.119702,1.588124 -0.0176,3.217382 -0.05144,4.8214286 0.02466,1.2298808 -0.04903,2.4806504 0.03629,3.6976504 0.424974,0.267128 1.078893,0.0463 1.592303,0.118442 16.696429,0 33.392858,0 50.089286,0 0.427253,-0.312094 0.09503,-1.053337 0.200021,-1.539307 -0.02438,-2.346011 0.0486,-4.7127033 -0.03629,-7.0458639 -0.424974,-0.2671289 -1.078893,-0.046302 -1.592303,-0.1184425 -1.512734,0.024123 -3.045971,-0.048293 -4.545865,0.036289 -0.267128,0.4249742 -0.0463,1.0788933 -0.118442,1.5923034 -0.07083,0.781103 0.126372,1.6434357 -0.271519,2.3627581 -0.319994,0.5207378 -0.903006,0.8606192 -1.526402,0.7695661 -4.076729,0.082609 -8.191506,0.1158905 -12.253767,-0.019008 -0.733618,-0.1628238 -1.30511,-0.9260785 -1.229462,-1.6772755 -0.09254,-0.9960552 0.05863,-2.0335922 -0.09919,-3.0131892 -1.588124,-0.1197017 -3.217382,-0.0176 -4.821429,-0.051444 -1.22988,0.024664 -2.480651,-0.049028 -3.69765,0.036289 -0.267252,0.4248812 -0.04742,1.0787882 -0.12008,1.592128 -0.07477,0.9171946 0.245679,2.0964984 -0.584648,2.7624522 C 32.425535,8.4340142 31.499038,8.1277438 30.744503,8.229341 26.996945,8.255904 23.213913,8.314547 19.488051,8.161156 18.64122,7.91345 18.260812,7.0171311 18.337634,6.1956878 18.270336,5.3008914 18.388427,4.3565861 18.216253,3.4827241 16.526323,3.3683607 14.798,3.466422 13.093311,3.4337216 12.75419,3.467393 12.37502,3.3599965 12.060073,3.499814 Z"
         id="path9212"
         transform="matrix(0.46467448,0,0,0.46467448,4.9052812,5.2500001)" />
      <path
         style="fill:#000000;stroke-width:0.288211"
         d="m 14.606459,15.4641 c -0.05739,0.521925 0.681806,0.805534 0.953706,1.222836 0.90794,0.876095 1.763414,1.830663 2.703872,2.658123 5.813501,0.05698 11.648056,0.0081 17.469655,0.02442 7.292829,0 14.585658,0 21.878487,0 1.023491,-0.831623 1.903867,-1.877299 2.871953,-2.791789 0.206094,-0.36456 1.147,-0.760131 0.737905,-1.16484 -15.4839,-0.03463 -30.978851,-0.0049 -46.467001,-0.01484 l -0.08158,0.03629 z"
         id="path9214"
         transform="matrix(0.46467448,0,0,0.46467448,4.9052812,5.2500001)" />
      <path
         style="fill:#000000;stroke-width:0.288211"
         d="m 19.292216,20.910528 c -0.119983,1.573191 -0.01719,3.187697 -0.05144,4.776786 0,7.827381 0,15.654762 0,23.482143 0.312093,0.427253 1.053336,0.09503 1.539306,0.200021 11.904762,0 23.809525,0 35.714286,0 0.427253,-0.312094 0.09503,-1.053337 0.200021,-1.539307 0,-8.928571 0,-17.857143 0,-26.785714 -0.312094,-0.427253 -1.053337,-0.09503 -1.539306,-0.200021 -11.904762,0 -23.809525,0 -35.714286,0 l -0.08158,0.03629 z"
         id="path9216"
         transform="matrix(0.46467448,0,0,0.46467448,4.9052812,5.2500001)" />
      <path
         style="fill:#000000;stroke-width:0.288211"
         d="m 19.314188,50.910005 c -0.476977,1.487053 -1.504682,2.730289 -2.203543,4.117955 0.05183,0.516695 0.775298,0.180909 1.121128,0.286168 13.495988,0.06236 26.992197,0.02846 40.488281,0.03749 0.483823,-0.342717 -0.35485,-0.942919 -0.472824,-1.374273 -0.577225,-0.995064 -1.2567,-1.975738 -1.615275,-3.06089 -4.669141,-0.06932 -9.354127,-0.0204 -14.029357,-0.04429 -7.713278,-0.0094 -15.426555,-0.01872 -23.139833,-0.02809 l -0.08161,0.03621 z"
         id="path9218"
         transform="matrix(0.46467448,0,0,0.46467448,4.9052812,5.2500001)" />
      <path
         style="fill:#000000;stroke-width:0.288211"
         d="m 14.470787,58.678386 c -0.11997,1.588074 -0.01723,3.21745 -0.05144,4.821428 0.102511,0.471421 -0.223901,1.197004 0.200021,1.494664 15.565476,0 31.130953,0 46.696429,0 0.427253,-0.312094 0.09503,-1.053336 0.20002,-1.539306 -0.02444,-1.57219 0.04879,-3.165124 -0.03629,-4.724436 -0.424974,-0.267129 -1.078894,-0.0463 -1.592304,-0.118443 -15.089285,0 -30.178571,0 -45.267857,0 l -0.08158,0.03629 z"
         id="path9220"
         transform="matrix(0.46467448,0,0,0.46467448,4.9052812,5.2500001)" />
      <path
         style="fill:#000000;stroke-width:0.288211"
         d="m 7.2386441,68.321243 c -0.1197395,1.186331 -0.017056,2.413911 -0.051444,3.616071 0.3120938,0.427253 1.0533366,0.09503 1.5393067,0.200021 19.9404762,0 39.8809532,0 59.8214292,0 0.427252,-0.312093 0.09503,-1.053336 0.20002,-1.539306 -0.04261,-0.759442 0.08725,-1.555512 -0.06609,-2.291434 -1.573191,-0.119983 -3.187696,-0.01719 -4.776785,-0.05144 -18.839286,0 -37.678572,0 -56.517858,0 l -0.081578,0.03629 z"
         id="path9222"
         transform="matrix(0.46467448,0,0,0.46467448,4.9052812,5.2500001)" />
    </g>
  </g>
</svg>
